<?xml version="1.0" encoding="utf-8" standalone="no"?>
<!DOCTYPE svg PUBLIC "-//W3C//DTD SVG 1.1//EN"
  "http://www.w3.org/Graphics/SVG/1.1/DTD/svg11.dtd">
<svg xmlns:xlink="http://www.w3.org/1999/xlink" width="1152pt" height="360pt" viewBox="0 0 1152 360" xmlns="http://www.w3.org/2000/svg" version="1.1">
 <metadata>
  <rdf:RDF xmlns:dc="http://purl.org/dc/elements/1.1/" xmlns:cc="http://creativecommons.org/ns#" xmlns:rdf="http://www.w3.org/1999/02/22-rdf-syntax-ns#">
   <cc:Work>
    <dc:type rdf:resource="http://purl.org/dc/dcmitype/StillImage"/>
    <dc:date>2024-10-27T13:10:57.302618</dc:date>
    <dc:format>image/svg+xml</dc:format>
    <dc:creator>
     <cc:Agent>
      <dc:title>Matplotlib v3.9.2, https://matplotlib.org/</dc:title>
     </cc:Agent>
    </dc:creator>
   </cc:Work>
  </rdf:RDF>
 </metadata>
 <defs>
  <style type="text/css">*{stroke-linejoin: round; stroke-linecap: butt}</style>
 </defs>
 <g id="figure_1">
  <g id="patch_1">
   <path d="M 0 360 
L 1152 360 
L 1152 0 
L 0 0 
z
" style="fill: #ffffff"/>
  </g>
  <g id="axes_1">
   <g id="patch_2">
    <path d="M 50.87 318.04 
L 570.6 318.04 
L 570.6 26.88 
L 50.87 26.88 
z
" style="fill: #ffffff"/>
   </g>
   <g id="matplotlib.axis_1">
    <g id="xtick_1">
     <g id="line2d_1">
      <defs>
       <path id="m6df72878bb" d="M 0 0 
L 0 3.5 
" style="stroke: #000000; stroke-width: 0.8"/>
      </defs>
      <g>
       <use xlink:href="#m6df72878bb" x="96.560549" y="318.04" style="stroke: #000000; stroke-width: 0.8"/>
      </g>
     </g>
     <g id="text_1">
      <!-- 2004 -->
      <g transform="translate(83.835549 332.638438) scale(0.1 -0.1)">
       <defs>
        <path id="DejaVuSans-32" d="M 1228 531 
L 3431 531 
L 3431 0 
L 469 0 
L 469 531 
Q 828 903 1448 1529 
Q 2069 2156 2228 2338 
Q 2531 2678 2651 2914 
Q 2772 3150 2772 3378 
Q 2772 3750 2511 3984 
Q 2250 4219 1831 4219 
Q 1534 4219 1204 4116 
Q 875 4013 500 3803 
L 500 4441 
Q 881 4594 1212 4672 
Q 1544 4750 1819 4750 
Q 2544 4750 2975 4387 
Q 3406 4025 3406 3419 
Q 3406 3131 3298 2873 
Q 3191 2616 2906 2266 
Q 2828 2175 2409 1742 
Q 1991 1309 1228 531 
z
" transform="scale(0.015625)"/>
        <path id="DejaVuSans-30" d="M 2034 4250 
Q 1547 4250 1301 3770 
Q 1056 3291 1056 2328 
Q 1056 1369 1301 889 
Q 1547 409 2034 409 
Q 2525 409 2770 889 
Q 3016 1369 3016 2328 
Q 3016 3291 2770 3770 
Q 2525 4250 2034 4250 
z
M 2034 4750 
Q 2819 4750 3233 4129 
Q 3647 3509 3647 2328 
Q 3647 1150 3233 529 
Q 2819 -91 2034 -91 
Q 1250 -91 836 529 
Q 422 1150 422 2328 
Q 422 3509 836 4129 
Q 1250 4750 2034 4750 
z
" transform="scale(0.015625)"/>
        <path id="DejaVuSans-34" d="M 2419 4116 
L 825 1625 
L 2419 1625 
L 2419 4116 
z
M 2253 4666 
L 3047 4666 
L 3047 1625 
L 3713 1625 
L 3713 1100 
L 3047 1100 
L 3047 0 
L 2419 0 
L 2419 1100 
L 313 1100 
L 313 1709 
L 2253 4666 
z
" transform="scale(0.015625)"/>
       </defs>
       <use xlink:href="#DejaVuSans-32"/>
       <use xlink:href="#DejaVuSans-30" x="63.623047"/>
       <use xlink:href="#DejaVuSans-30" x="127.246094"/>
       <use xlink:href="#DejaVuSans-34" x="190.869141"/>
      </g>
     </g>
    </g>
    <g id="xtick_2">
     <g id="line2d_2">
      <g>
       <use xlink:href="#m6df72878bb" x="210.786923" y="318.04" style="stroke: #000000; stroke-width: 0.8"/>
      </g>
     </g>
     <g id="text_2">
      <!-- 2009 -->
      <g transform="translate(198.061923 332.638438) scale(0.1 -0.1)">
       <defs>
        <path id="DejaVuSans-39" d="M 703 97 
L 703 672 
Q 941 559 1184 500 
Q 1428 441 1663 441 
Q 2288 441 2617 861 
Q 2947 1281 2994 2138 
Q 2813 1869 2534 1725 
Q 2256 1581 1919 1581 
Q 1219 1581 811 2004 
Q 403 2428 403 3163 
Q 403 3881 828 4315 
Q 1253 4750 1959 4750 
Q 2769 4750 3195 4129 
Q 3622 3509 3622 2328 
Q 3622 1225 3098 567 
Q 2575 -91 1691 -91 
Q 1453 -91 1209 -44 
Q 966 3 703 97 
z
M 1959 2075 
Q 2384 2075 2632 2365 
Q 2881 2656 2881 3163 
Q 2881 3666 2632 3958 
Q 2384 4250 1959 4250 
Q 1534 4250 1286 3958 
Q 1038 3666 1038 3163 
Q 1038 2656 1286 2365 
Q 1534 2075 1959 2075 
z
" transform="scale(0.015625)"/>
       </defs>
       <use xlink:href="#DejaVuSans-32"/>
       <use xlink:href="#DejaVuSans-30" x="63.623047"/>
       <use xlink:href="#DejaVuSans-30" x="127.246094"/>
       <use xlink:href="#DejaVuSans-39" x="190.869141"/>
      </g>
     </g>
    </g>
    <g id="xtick_3">
     <g id="line2d_3">
      <g>
       <use xlink:href="#m6df72878bb" x="325.013297" y="318.04" style="stroke: #000000; stroke-width: 0.8"/>
      </g>
     </g>
     <g id="text_3">
      <!-- 2014 -->
      <g transform="translate(312.288297 332.638438) scale(0.1 -0.1)">
       <defs>
        <path id="DejaVuSans-31" d="M 794 531 
L 1825 531 
L 1825 4091 
L 703 3866 
L 703 4441 
L 1819 4666 
L 2450 4666 
L 2450 531 
L 3481 531 
L 3481 0 
L 794 0 
L 794 531 
z
" transform="scale(0.015625)"/>
       </defs>
       <use xlink:href="#DejaVuSans-32"/>
       <use xlink:href="#DejaVuSans-30" x="63.623047"/>
       <use xlink:href="#DejaVuSans-31" x="127.246094"/>
       <use xlink:href="#DejaVuSans-34" x="190.869141"/>
      </g>
     </g>
    </g>
    <g id="xtick_4">
     <g id="line2d_4">
      <g>
       <use xlink:href="#m6df72878bb" x="439.23967" y="318.04" style="stroke: #000000; stroke-width: 0.8"/>
      </g>
     </g>
     <g id="text_4">
      <!-- 2019 -->
      <g transform="translate(426.51467 332.638438) scale(0.1 -0.1)">
       <use xlink:href="#DejaVuSans-32"/>
       <use xlink:href="#DejaVuSans-30" x="63.623047"/>
       <use xlink:href="#DejaVuSans-31" x="127.246094"/>
       <use xlink:href="#DejaVuSans-39" x="190.869141"/>
      </g>
     </g>
    </g>
    <g id="xtick_5">
     <g id="line2d_5">
      <g>
       <use xlink:href="#m6df72878bb" x="553.466044" y="318.04" style="stroke: #000000; stroke-width: 0.8"/>
      </g>
     </g>
     <g id="text_5">
      <!-- 2024 -->
      <g transform="translate(540.741044 332.638438) scale(0.1 -0.1)">
       <use xlink:href="#DejaVuSans-32"/>
       <use xlink:href="#DejaVuSans-30" x="63.623047"/>
       <use xlink:href="#DejaVuSans-32" x="127.246094"/>
       <use xlink:href="#DejaVuSans-34" x="190.869141"/>
      </g>
     </g>
    </g>
    <g id="xtick_6">
     <g id="line2d_6">
      <defs>
       <path id="m58988cba4b" d="M 0 0 
L 0 2 
" style="stroke: #000000; stroke-width: 0.6"/>
      </defs>
      <g>
       <use xlink:href="#m58988cba4b" x="50.87" y="318.04" style="stroke: #000000; stroke-width: 0.6"/>
      </g>
     </g>
    </g>
    <g id="xtick_7">
     <g id="line2d_7">
      <g>
       <use xlink:href="#m58988cba4b" x="73.715275" y="318.04" style="stroke: #000000; stroke-width: 0.6"/>
      </g>
     </g>
    </g>
    <g id="xtick_8">
     <g id="line2d_8">
      <g>
       <use xlink:href="#m58988cba4b" x="119.405824" y="318.04" style="stroke: #000000; stroke-width: 0.6"/>
      </g>
     </g>
    </g>
    <g id="xtick_9">
     <g id="line2d_9">
      <g>
       <use xlink:href="#m58988cba4b" x="142.251099" y="318.04" style="stroke: #000000; stroke-width: 0.6"/>
      </g>
     </g>
    </g>
    <g id="xtick_10">
     <g id="line2d_10">
      <g>
       <use xlink:href="#m58988cba4b" x="165.096374" y="318.04" style="stroke: #000000; stroke-width: 0.6"/>
      </g>
     </g>
    </g>
    <g id="xtick_11">
     <g id="line2d_11">
      <g>
       <use xlink:href="#m58988cba4b" x="187.941648" y="318.04" style="stroke: #000000; stroke-width: 0.6"/>
      </g>
     </g>
    </g>
    <g id="xtick_12">
     <g id="line2d_12">
      <g>
       <use xlink:href="#m58988cba4b" x="233.632198" y="318.04" style="stroke: #000000; stroke-width: 0.6"/>
      </g>
     </g>
    </g>
    <g id="xtick_13">
     <g id="line2d_13">
      <g>
       <use xlink:href="#m58988cba4b" x="256.477473" y="318.04" style="stroke: #000000; stroke-width: 0.6"/>
      </g>
     </g>
    </g>
    <g id="xtick_14">
     <g id="line2d_14">
      <g>
       <use xlink:href="#m58988cba4b" x="279.322747" y="318.04" style="stroke: #000000; stroke-width: 0.6"/>
      </g>
     </g>
    </g>
    <g id="xtick_15">
     <g id="line2d_15">
      <g>
       <use xlink:href="#m58988cba4b" x="302.168022" y="318.04" style="stroke: #000000; stroke-width: 0.6"/>
      </g>
     </g>
    </g>
    <g id="xtick_16">
     <g id="line2d_16">
      <g>
       <use xlink:href="#m58988cba4b" x="347.858571" y="318.04" style="stroke: #000000; stroke-width: 0.6"/>
      </g>
     </g>
    </g>
    <g id="xtick_17">
     <g id="line2d_17">
      <g>
       <use xlink:href="#m58988cba4b" x="370.703846" y="318.04" style="stroke: #000000; stroke-width: 0.6"/>
      </g>
     </g>
    </g>
    <g id="xtick_18">
     <g id="line2d_18">
      <g>
       <use xlink:href="#m58988cba4b" x="393.549121" y="318.04" style="stroke: #000000; stroke-width: 0.6"/>
      </g>
     </g>
    </g>
    <g id="xtick_19">
     <g id="line2d_19">
      <g>
       <use xlink:href="#m58988cba4b" x="416.394396" y="318.04" style="stroke: #000000; stroke-width: 0.6"/>
      </g>
     </g>
    </g>
    <g id="xtick_20">
     <g id="line2d_20">
      <g>
       <use xlink:href="#m58988cba4b" x="462.084945" y="318.04" style="stroke: #000000; stroke-width: 0.6"/>
      </g>
     </g>
    </g>
    <g id="xtick_21">
     <g id="line2d_21">
      <g>
       <use xlink:href="#m58988cba4b" x="484.93022" y="318.04" style="stroke: #000000; stroke-width: 0.6"/>
      </g>
     </g>
    </g>
    <g id="xtick_22">
     <g id="line2d_22">
      <g>
       <use xlink:href="#m58988cba4b" x="507.775495" y="318.04" style="stroke: #000000; stroke-width: 0.6"/>
      </g>
     </g>
    </g>
    <g id="xtick_23">
     <g id="line2d_23">
      <g>
       <use xlink:href="#m58988cba4b" x="530.620769" y="318.04" style="stroke: #000000; stroke-width: 0.6"/>
      </g>
     </g>
    </g>
    <g id="text_6">
     <!-- Date -->
     <g transform="translate(298.784219 346.316563) scale(0.1 -0.1)">
      <defs>
       <path id="DejaVuSans-44" d="M 1259 4147 
L 1259 519 
L 2022 519 
Q 2988 519 3436 956 
Q 3884 1394 3884 2338 
Q 3884 3275 3436 3711 
Q 2988 4147 2022 4147 
L 1259 4147 
z
M 628 4666 
L 1925 4666 
Q 3281 4666 3915 4102 
Q 4550 3538 4550 2338 
Q 4550 1131 3912 565 
Q 3275 0 1925 0 
L 628 0 
L 628 4666 
z
" transform="scale(0.015625)"/>
       <path id="DejaVuSans-61" d="M 2194 1759 
Q 1497 1759 1228 1600 
Q 959 1441 959 1056 
Q 959 750 1161 570 
Q 1363 391 1709 391 
Q 2188 391 2477 730 
Q 2766 1069 2766 1631 
L 2766 1759 
L 2194 1759 
z
M 3341 1997 
L 3341 0 
L 2766 0 
L 2766 531 
Q 2569 213 2275 61 
Q 1981 -91 1556 -91 
Q 1019 -91 701 211 
Q 384 513 384 1019 
Q 384 1609 779 1909 
Q 1175 2209 1959 2209 
L 2766 2209 
L 2766 2266 
Q 2766 2663 2505 2880 
Q 2244 3097 1772 3097 
Q 1472 3097 1187 3025 
Q 903 2953 641 2809 
L 641 3341 
Q 956 3463 1253 3523 
Q 1550 3584 1831 3584 
Q 2591 3584 2966 3190 
Q 3341 2797 3341 1997 
z
" transform="scale(0.015625)"/>
       <path id="DejaVuSans-74" d="M 1172 4494 
L 1172 3500 
L 2356 3500 
L 2356 3053 
L 1172 3053 
L 1172 1153 
Q 1172 725 1289 603 
Q 1406 481 1766 481 
L 2356 481 
L 2356 0 
L 1766 0 
Q 1100 0 847 248 
Q 594 497 594 1153 
L 594 3053 
L 172 3053 
L 172 3500 
L 594 3500 
L 594 4494 
L 1172 4494 
z
" transform="scale(0.015625)"/>
       <path id="DejaVuSans-65" d="M 3597 1894 
L 3597 1613 
L 953 1613 
Q 991 1019 1311 708 
Q 1631 397 2203 397 
Q 2534 397 2845 478 
Q 3156 559 3463 722 
L 3463 178 
Q 3153 47 2828 -22 
Q 2503 -91 2169 -91 
Q 1331 -91 842 396 
Q 353 884 353 1716 
Q 353 2575 817 3079 
Q 1281 3584 2069 3584 
Q 2775 3584 3186 3129 
Q 3597 2675 3597 1894 
z
M 3022 2063 
Q 3016 2534 2758 2815 
Q 2500 3097 2075 3097 
Q 1594 3097 1305 2825 
Q 1016 2553 972 2059 
L 3022 2063 
z
" transform="scale(0.015625)"/>
      </defs>
      <use xlink:href="#DejaVuSans-44"/>
      <use xlink:href="#DejaVuSans-61" x="77.001953"/>
      <use xlink:href="#DejaVuSans-74" x="138.28125"/>
      <use xlink:href="#DejaVuSans-65" x="177.490234"/>
     </g>
    </g>
   </g>
   <g id="matplotlib.axis_2">
    <g id="ytick_1">
     <g id="line2d_24">
      <defs>
       <path id="m143b90263e" d="M 0 0 
L -3.5 0 
" style="stroke: #000000; stroke-width: 0.8"/>
      </defs>
      <g>
       <use xlink:href="#m143b90263e" x="50.87" y="304.805455" style="stroke: #000000; stroke-width: 0.8"/>
      </g>
     </g>
     <g id="text_7">
      <!-- 0 -->
      <g transform="translate(37.5075 308.604673) scale(0.1 -0.1)">
       <use xlink:href="#DejaVuSans-30"/>
      </g>
     </g>
    </g>
    <g id="ytick_2">
     <g id="line2d_25">
      <g>
       <use xlink:href="#m143b90263e" x="50.87" y="271.801601" style="stroke: #000000; stroke-width: 0.8"/>
      </g>
     </g>
     <g id="text_8">
      <!-- 50 -->
      <g transform="translate(31.145 275.600819) scale(0.1 -0.1)">
       <defs>
        <path id="DejaVuSans-35" d="M 691 4666 
L 3169 4666 
L 3169 4134 
L 1269 4134 
L 1269 2991 
Q 1406 3038 1543 3061 
Q 1681 3084 1819 3084 
Q 2600 3084 3056 2656 
Q 3513 2228 3513 1497 
Q 3513 744 3044 326 
Q 2575 -91 1722 -91 
Q 1428 -91 1123 -41 
Q 819 9 494 109 
L 494 744 
Q 775 591 1075 516 
Q 1375 441 1709 441 
Q 2250 441 2565 725 
Q 2881 1009 2881 1497 
Q 2881 1984 2565 2268 
Q 2250 2553 1709 2553 
Q 1456 2553 1204 2497 
Q 953 2441 691 2322 
L 691 4666 
z
" transform="scale(0.015625)"/>
       </defs>
       <use xlink:href="#DejaVuSans-35"/>
       <use xlink:href="#DejaVuSans-30" x="63.623047"/>
      </g>
     </g>
    </g>
    <g id="ytick_3">
     <g id="line2d_26">
      <g>
       <use xlink:href="#m143b90263e" x="50.87" y="238.797747" style="stroke: #000000; stroke-width: 0.8"/>
      </g>
     </g>
     <g id="text_9">
      <!-- 100 -->
      <g transform="translate(24.7825 242.596965) scale(0.1 -0.1)">
       <use xlink:href="#DejaVuSans-31"/>
       <use xlink:href="#DejaVuSans-30" x="63.623047"/>
       <use xlink:href="#DejaVuSans-30" x="127.246094"/>
      </g>
     </g>
    </g>
    <g id="ytick_4">
     <g id="line2d_27">
      <g>
       <use xlink:href="#m143b90263e" x="50.87" y="205.793893" style="stroke: #000000; stroke-width: 0.8"/>
      </g>
     </g>
     <g id="text_10">
      <!-- 150 -->
      <g transform="translate(24.7825 209.593111) scale(0.1 -0.1)">
       <use xlink:href="#DejaVuSans-31"/>
       <use xlink:href="#DejaVuSans-35" x="63.623047"/>
       <use xlink:href="#DejaVuSans-30" x="127.246094"/>
      </g>
     </g>
    </g>
    <g id="ytick_5">
     <g id="line2d_28">
      <g>
       <use xlink:href="#m143b90263e" x="50.87" y="172.790039" style="stroke: #000000; stroke-width: 0.8"/>
      </g>
     </g>
     <g id="text_11">
      <!-- 200 -->
      <g transform="translate(24.7825 176.589257) scale(0.1 -0.1)">
       <use xlink:href="#DejaVuSans-32"/>
       <use xlink:href="#DejaVuSans-30" x="63.623047"/>
       <use xlink:href="#DejaVuSans-30" x="127.246094"/>
      </g>
     </g>
    </g>
    <g id="ytick_6">
     <g id="line2d_29">
      <g>
       <use xlink:href="#m143b90263e" x="50.87" y="139.786185" style="stroke: #000000; stroke-width: 0.8"/>
      </g>
     </g>
     <g id="text_12">
      <!-- 250 -->
      <g transform="translate(24.7825 143.585403) scale(0.1 -0.1)">
       <use xlink:href="#DejaVuSans-32"/>
       <use xlink:href="#DejaVuSans-35" x="63.623047"/>
       <use xlink:href="#DejaVuSans-30" x="127.246094"/>
      </g>
     </g>
    </g>
    <g id="ytick_7">
     <g id="line2d_30">
      <g>
       <use xlink:href="#m143b90263e" x="50.87" y="106.782331" style="stroke: #000000; stroke-width: 0.8"/>
      </g>
     </g>
     <g id="text_13">
      <!-- 300 -->
      <g transform="translate(24.7825 110.581549) scale(0.1 -0.1)">
       <defs>
        <path id="DejaVuSans-33" d="M 2597 2516 
Q 3050 2419 3304 2112 
Q 3559 1806 3559 1356 
Q 3559 666 3084 287 
Q 2609 -91 1734 -91 
Q 1441 -91 1130 -33 
Q 819 25 488 141 
L 488 750 
Q 750 597 1062 519 
Q 1375 441 1716 441 
Q 2309 441 2620 675 
Q 2931 909 2931 1356 
Q 2931 1769 2642 2001 
Q 2353 2234 1838 2234 
L 1294 2234 
L 1294 2753 
L 1863 2753 
Q 2328 2753 2575 2939 
Q 2822 3125 2822 3475 
Q 2822 3834 2567 4026 
Q 2313 4219 1838 4219 
Q 1578 4219 1281 4162 
Q 984 4106 628 3988 
L 628 4550 
Q 988 4650 1302 4700 
Q 1616 4750 1894 4750 
Q 2613 4750 3031 4423 
Q 3450 4097 3450 3541 
Q 3450 3153 3228 2886 
Q 3006 2619 2597 2516 
z
" transform="scale(0.015625)"/>
       </defs>
       <use xlink:href="#DejaVuSans-33"/>
       <use xlink:href="#DejaVuSans-30" x="63.623047"/>
       <use xlink:href="#DejaVuSans-30" x="127.246094"/>
      </g>
     </g>
    </g>
    <g id="ytick_8">
     <g id="line2d_31">
      <g>
       <use xlink:href="#m143b90263e" x="50.87" y="73.778477" style="stroke: #000000; stroke-width: 0.8"/>
      </g>
     </g>
     <g id="text_14">
      <!-- 350 -->
      <g transform="translate(24.7825 77.577695) scale(0.1 -0.1)">
       <use xlink:href="#DejaVuSans-33"/>
       <use xlink:href="#DejaVuSans-35" x="63.623047"/>
       <use xlink:href="#DejaVuSans-30" x="127.246094"/>
      </g>
     </g>
    </g>
    <g id="ytick_9">
     <g id="line2d_32">
      <g>
       <use xlink:href="#m143b90263e" x="50.87" y="40.774623" style="stroke: #000000; stroke-width: 0.8"/>
      </g>
     </g>
     <g id="text_15">
      <!-- 400 -->
      <g transform="translate(24.7825 44.573841) scale(0.1 -0.1)">
       <use xlink:href="#DejaVuSans-34"/>
       <use xlink:href="#DejaVuSans-30" x="63.623047"/>
       <use xlink:href="#DejaVuSans-30" x="127.246094"/>
      </g>
     </g>
    </g>
    <g id="text_16">
     <!-- Number of Revisions (3-Month Rolling Average) -->
     <g transform="translate(18.702812 290.720937) rotate(-90) scale(0.1 -0.1)">
      <defs>
       <path id="DejaVuSans-4e" d="M 628 4666 
L 1478 4666 
L 3547 763 
L 3547 4666 
L 4159 4666 
L 4159 0 
L 3309 0 
L 1241 3903 
L 1241 0 
L 628 0 
L 628 4666 
z
" transform="scale(0.015625)"/>
       <path id="DejaVuSans-75" d="M 544 1381 
L 544 3500 
L 1119 3500 
L 1119 1403 
Q 1119 906 1312 657 
Q 1506 409 1894 409 
Q 2359 409 2629 706 
Q 2900 1003 2900 1516 
L 2900 3500 
L 3475 3500 
L 3475 0 
L 2900 0 
L 2900 538 
Q 2691 219 2414 64 
Q 2138 -91 1772 -91 
Q 1169 -91 856 284 
Q 544 659 544 1381 
z
M 1991 3584 
L 1991 3584 
z
" transform="scale(0.015625)"/>
       <path id="DejaVuSans-6d" d="M 3328 2828 
Q 3544 3216 3844 3400 
Q 4144 3584 4550 3584 
Q 5097 3584 5394 3201 
Q 5691 2819 5691 2113 
L 5691 0 
L 5113 0 
L 5113 2094 
Q 5113 2597 4934 2840 
Q 4756 3084 4391 3084 
Q 3944 3084 3684 2787 
Q 3425 2491 3425 1978 
L 3425 0 
L 2847 0 
L 2847 2094 
Q 2847 2600 2669 2842 
Q 2491 3084 2119 3084 
Q 1678 3084 1418 2786 
Q 1159 2488 1159 1978 
L 1159 0 
L 581 0 
L 581 3500 
L 1159 3500 
L 1159 2956 
Q 1356 3278 1631 3431 
Q 1906 3584 2284 3584 
Q 2666 3584 2933 3390 
Q 3200 3197 3328 2828 
z
" transform="scale(0.015625)"/>
       <path id="DejaVuSans-62" d="M 3116 1747 
Q 3116 2381 2855 2742 
Q 2594 3103 2138 3103 
Q 1681 3103 1420 2742 
Q 1159 2381 1159 1747 
Q 1159 1113 1420 752 
Q 1681 391 2138 391 
Q 2594 391 2855 752 
Q 3116 1113 3116 1747 
z
M 1159 2969 
Q 1341 3281 1617 3432 
Q 1894 3584 2278 3584 
Q 2916 3584 3314 3078 
Q 3713 2572 3713 1747 
Q 3713 922 3314 415 
Q 2916 -91 2278 -91 
Q 1894 -91 1617 61 
Q 1341 213 1159 525 
L 1159 0 
L 581 0 
L 581 4863 
L 1159 4863 
L 1159 2969 
z
" transform="scale(0.015625)"/>
       <path id="DejaVuSans-72" d="M 2631 2963 
Q 2534 3019 2420 3045 
Q 2306 3072 2169 3072 
Q 1681 3072 1420 2755 
Q 1159 2438 1159 1844 
L 1159 0 
L 581 0 
L 581 3500 
L 1159 3500 
L 1159 2956 
Q 1341 3275 1631 3429 
Q 1922 3584 2338 3584 
Q 2397 3584 2469 3576 
Q 2541 3569 2628 3553 
L 2631 2963 
z
" transform="scale(0.015625)"/>
       <path id="DejaVuSans-20" transform="scale(0.015625)"/>
       <path id="DejaVuSans-6f" d="M 1959 3097 
Q 1497 3097 1228 2736 
Q 959 2375 959 1747 
Q 959 1119 1226 758 
Q 1494 397 1959 397 
Q 2419 397 2687 759 
Q 2956 1122 2956 1747 
Q 2956 2369 2687 2733 
Q 2419 3097 1959 3097 
z
M 1959 3584 
Q 2709 3584 3137 3096 
Q 3566 2609 3566 1747 
Q 3566 888 3137 398 
Q 2709 -91 1959 -91 
Q 1206 -91 779 398 
Q 353 888 353 1747 
Q 353 2609 779 3096 
Q 1206 3584 1959 3584 
z
" transform="scale(0.015625)"/>
       <path id="DejaVuSans-66" d="M 2375 4863 
L 2375 4384 
L 1825 4384 
Q 1516 4384 1395 4259 
Q 1275 4134 1275 3809 
L 1275 3500 
L 2222 3500 
L 2222 3053 
L 1275 3053 
L 1275 0 
L 697 0 
L 697 3053 
L 147 3053 
L 147 3500 
L 697 3500 
L 697 3744 
Q 697 4328 969 4595 
Q 1241 4863 1831 4863 
L 2375 4863 
z
" transform="scale(0.015625)"/>
       <path id="DejaVuSans-52" d="M 2841 2188 
Q 3044 2119 3236 1894 
Q 3428 1669 3622 1275 
L 4263 0 
L 3584 0 
L 2988 1197 
Q 2756 1666 2539 1819 
Q 2322 1972 1947 1972 
L 1259 1972 
L 1259 0 
L 628 0 
L 628 4666 
L 2053 4666 
Q 2853 4666 3247 4331 
Q 3641 3997 3641 3322 
Q 3641 2881 3436 2590 
Q 3231 2300 2841 2188 
z
M 1259 4147 
L 1259 2491 
L 2053 2491 
Q 2509 2491 2742 2702 
Q 2975 2913 2975 3322 
Q 2975 3731 2742 3939 
Q 2509 4147 2053 4147 
L 1259 4147 
z
" transform="scale(0.015625)"/>
       <path id="DejaVuSans-76" d="M 191 3500 
L 800 3500 
L 1894 563 
L 2988 3500 
L 3597 3500 
L 2284 0 
L 1503 0 
L 191 3500 
z
" transform="scale(0.015625)"/>
       <path id="DejaVuSans-69" d="M 603 3500 
L 1178 3500 
L 1178 0 
L 603 0 
L 603 3500 
z
M 603 4863 
L 1178 4863 
L 1178 4134 
L 603 4134 
L 603 4863 
z
" transform="scale(0.015625)"/>
       <path id="DejaVuSans-73" d="M 2834 3397 
L 2834 2853 
Q 2591 2978 2328 3040 
Q 2066 3103 1784 3103 
Q 1356 3103 1142 2972 
Q 928 2841 928 2578 
Q 928 2378 1081 2264 
Q 1234 2150 1697 2047 
L 1894 2003 
Q 2506 1872 2764 1633 
Q 3022 1394 3022 966 
Q 3022 478 2636 193 
Q 2250 -91 1575 -91 
Q 1294 -91 989 -36 
Q 684 19 347 128 
L 347 722 
Q 666 556 975 473 
Q 1284 391 1588 391 
Q 1994 391 2212 530 
Q 2431 669 2431 922 
Q 2431 1156 2273 1281 
Q 2116 1406 1581 1522 
L 1381 1569 
Q 847 1681 609 1914 
Q 372 2147 372 2553 
Q 372 3047 722 3315 
Q 1072 3584 1716 3584 
Q 2034 3584 2315 3537 
Q 2597 3491 2834 3397 
z
" transform="scale(0.015625)"/>
       <path id="DejaVuSans-6e" d="M 3513 2113 
L 3513 0 
L 2938 0 
L 2938 2094 
Q 2938 2591 2744 2837 
Q 2550 3084 2163 3084 
Q 1697 3084 1428 2787 
Q 1159 2491 1159 1978 
L 1159 0 
L 581 0 
L 581 3500 
L 1159 3500 
L 1159 2956 
Q 1366 3272 1645 3428 
Q 1925 3584 2291 3584 
Q 2894 3584 3203 3211 
Q 3513 2838 3513 2113 
z
" transform="scale(0.015625)"/>
       <path id="DejaVuSans-28" d="M 1984 4856 
Q 1566 4138 1362 3434 
Q 1159 2731 1159 2009 
Q 1159 1288 1364 580 
Q 1569 -128 1984 -844 
L 1484 -844 
Q 1016 -109 783 600 
Q 550 1309 550 2009 
Q 550 2706 781 3412 
Q 1013 4119 1484 4856 
L 1984 4856 
z
" transform="scale(0.015625)"/>
       <path id="DejaVuSans-2d" d="M 313 2009 
L 1997 2009 
L 1997 1497 
L 313 1497 
L 313 2009 
z
" transform="scale(0.015625)"/>
       <path id="DejaVuSans-4d" d="M 628 4666 
L 1569 4666 
L 2759 1491 
L 3956 4666 
L 4897 4666 
L 4897 0 
L 4281 0 
L 4281 4097 
L 3078 897 
L 2444 897 
L 1241 4097 
L 1241 0 
L 628 0 
L 628 4666 
z
" transform="scale(0.015625)"/>
       <path id="DejaVuSans-68" d="M 3513 2113 
L 3513 0 
L 2938 0 
L 2938 2094 
Q 2938 2591 2744 2837 
Q 2550 3084 2163 3084 
Q 1697 3084 1428 2787 
Q 1159 2491 1159 1978 
L 1159 0 
L 581 0 
L 581 4863 
L 1159 4863 
L 1159 2956 
Q 1366 3272 1645 3428 
Q 1925 3584 2291 3584 
Q 2894 3584 3203 3211 
Q 3513 2838 3513 2113 
z
" transform="scale(0.015625)"/>
       <path id="DejaVuSans-6c" d="M 603 4863 
L 1178 4863 
L 1178 0 
L 603 0 
L 603 4863 
z
" transform="scale(0.015625)"/>
       <path id="DejaVuSans-67" d="M 2906 1791 
Q 2906 2416 2648 2759 
Q 2391 3103 1925 3103 
Q 1463 3103 1205 2759 
Q 947 2416 947 1791 
Q 947 1169 1205 825 
Q 1463 481 1925 481 
Q 2391 481 2648 825 
Q 2906 1169 2906 1791 
z
M 3481 434 
Q 3481 -459 3084 -895 
Q 2688 -1331 1869 -1331 
Q 1566 -1331 1297 -1286 
Q 1028 -1241 775 -1147 
L 775 -588 
Q 1028 -725 1275 -790 
Q 1522 -856 1778 -856 
Q 2344 -856 2625 -561 
Q 2906 -266 2906 331 
L 2906 616 
Q 2728 306 2450 153 
Q 2172 0 1784 0 
Q 1141 0 747 490 
Q 353 981 353 1791 
Q 353 2603 747 3093 
Q 1141 3584 1784 3584 
Q 2172 3584 2450 3431 
Q 2728 3278 2906 2969 
L 2906 3500 
L 3481 3500 
L 3481 434 
z
" transform="scale(0.015625)"/>
       <path id="DejaVuSans-41" d="M 2188 4044 
L 1331 1722 
L 3047 1722 
L 2188 4044 
z
M 1831 4666 
L 2547 4666 
L 4325 0 
L 3669 0 
L 3244 1197 
L 1141 1197 
L 716 0 
L 50 0 
L 1831 4666 
z
" transform="scale(0.015625)"/>
       <path id="DejaVuSans-29" d="M 513 4856 
L 1013 4856 
Q 1481 4119 1714 3412 
Q 1947 2706 1947 2009 
Q 1947 1309 1714 600 
Q 1481 -109 1013 -844 
L 513 -844 
Q 928 -128 1133 580 
Q 1338 1288 1338 2009 
Q 1338 2731 1133 3434 
Q 928 4138 513 4856 
z
" transform="scale(0.015625)"/>
      </defs>
      <use xlink:href="#DejaVuSans-4e"/>
      <use xlink:href="#DejaVuSans-75" x="74.804688"/>
      <use xlink:href="#DejaVuSans-6d" x="138.183594"/>
      <use xlink:href="#DejaVuSans-62" x="235.595703"/>
      <use xlink:href="#DejaVuSans-65" x="299.072266"/>
      <use xlink:href="#DejaVuSans-72" x="360.595703"/>
      <use xlink:href="#DejaVuSans-20" x="401.708984"/>
      <use xlink:href="#DejaVuSans-6f" x="433.496094"/>
      <use xlink:href="#DejaVuSans-66" x="494.677734"/>
      <use xlink:href="#DejaVuSans-20" x="529.882812"/>
      <use xlink:href="#DejaVuSans-52" x="561.669922"/>
      <use xlink:href="#DejaVuSans-65" x="626.652344"/>
      <use xlink:href="#DejaVuSans-76" x="688.175781"/>
      <use xlink:href="#DejaVuSans-69" x="747.355469"/>
      <use xlink:href="#DejaVuSans-73" x="775.138672"/>
      <use xlink:href="#DejaVuSans-69" x="827.238281"/>
      <use xlink:href="#DejaVuSans-6f" x="855.021484"/>
      <use xlink:href="#DejaVuSans-6e" x="916.203125"/>
      <use xlink:href="#DejaVuSans-73" x="979.582031"/>
      <use xlink:href="#DejaVuSans-20" x="1031.681641"/>
      <use xlink:href="#DejaVuSans-28" x="1063.46875"/>
      <use xlink:href="#DejaVuSans-33" x="1102.482422"/>
      <use xlink:href="#DejaVuSans-2d" x="1166.105469"/>
      <use xlink:href="#DejaVuSans-4d" x="1202.189453"/>
      <use xlink:href="#DejaVuSans-6f" x="1288.46875"/>
      <use xlink:href="#DejaVuSans-6e" x="1349.650391"/>
      <use xlink:href="#DejaVuSans-74" x="1413.029297"/>
      <use xlink:href="#DejaVuSans-68" x="1452.238281"/>
      <use xlink:href="#DejaVuSans-20" x="1515.617188"/>
      <use xlink:href="#DejaVuSans-52" x="1547.404297"/>
      <use xlink:href="#DejaVuSans-6f" x="1612.386719"/>
      <use xlink:href="#DejaVuSans-6c" x="1673.568359"/>
      <use xlink:href="#DejaVuSans-6c" x="1701.351562"/>
      <use xlink:href="#DejaVuSans-69" x="1729.134766"/>
      <use xlink:href="#DejaVuSans-6e" x="1756.917969"/>
      <use xlink:href="#DejaVuSans-67" x="1820.296875"/>
      <use xlink:href="#DejaVuSans-20" x="1883.773438"/>
      <use xlink:href="#DejaVuSans-41" x="1915.560547"/>
      <use xlink:href="#DejaVuSans-76" x="1978.09375"/>
      <use xlink:href="#DejaVuSans-65" x="2037.273438"/>
      <use xlink:href="#DejaVuSans-72" x="2098.796875"/>
      <use xlink:href="#DejaVuSans-61" x="2139.910156"/>
      <use xlink:href="#DejaVuSans-67" x="2201.189453"/>
      <use xlink:href="#DejaVuSans-65" x="2264.666016"/>
      <use xlink:href="#DejaVuSans-29" x="2326.189453"/>
     </g>
    </g>
   </g>
   <g id="line2d_33">
    <path d="M 439.23967 230.216745 
L 441.143443 225.596205 
L 443.047216 187.751786 
L 444.950989 158.488368 
L 446.854762 155.84806 
L 448.758535 194.352556 
L 450.662308 163.108908 
L 452.566081 80.599273 
L 454.469853 40.114545 
L 456.373626 79.71917 
L 458.277399 147.047032 
L 460.181172 148.587212 
L 462.084945 166.409293 
L 463.988718 195.892736 
L 465.892491 257.059879 
L 467.796264 278.402371 
L 469.700037 287.423425 
L 471.60381 286.983373 
L 473.507582 286.983373 
L 475.411355 285.223168 
L 477.315128 287.423425 
L 479.218901 286.763348 
L 481.122674 274.661935 
L 483.026447 270.921498 
L 484.93022 265.420855 
L 486.833993 281.922782 
L 488.737766 279.722526 
L 490.641538 283.682988 
L 492.545311 284.123039 
L 494.449084 285.003142 
L 496.352857 288.963605 
L 498.25663 279.062448 
L 500.160403 281.262705 
L 502.064176 275.762063 
L 503.967949 282.58286 
L 505.871722 284.563091 
L 507.775495 291.603913 
L 509.679267 295.124324 
L 511.58304 298.204684 
L 513.486813 299.084787 
L 515.390586 299.744864 
L 517.294359 292.704041 
L 519.198132 290.503784 
L 521.101905 287.863476 
L 523.005678 287.64345 
L 524.909451 282.142808 
L 526.813223 278.622397 
L 528.716996 275.101986 
L 530.620769 281.482731 
L 532.524542 287.423425 
L 534.428315 296.88453 
L 536.332088 296.88453 
L 538.235861 294.464247 
L 540.139634 290.943836 
L 542.043407 290.283759 
L 543.947179 284.563091 
L 545.850952 262.340496 
L 547.754725 257.719956 
L 549.658498 263.000573 
L 551.562271 288.083502 
L 553.466044 288.743579 
L 555.369817 293.364118 
L 557.27359 292.924067 
L 559.177363 297.764632 
L 561.081136 298.204684 
L 562.984908 299.524838 
L 564.888681 299.964889 
L 566.792454 295.124324 
L 568.696227 293.80417 
" clip-path="url(#pd53e471eb6)" style="fill: none; stroke: #1f77b4; stroke-width: 1.5; stroke-linecap: square"/>
   </g>
   <g id="line2d_34">
    <path d="M 52.773773 303.4853 
L 54.677546 304.585429 
L 56.581319 304.805455 
L 64.19641 304.805455 
L 66.100183 303.925352 
L 68.003956 303.705326 
L 69.907729 303.705326 
L 71.811502 304.585429 
L 73.715275 304.585429 
L 75.619048 304.145377 
L 77.522821 304.145377 
L 81.330366 304.585429 
L 83.234139 304.365403 
L 85.137912 303.4853 
L 87.041685 303.705326 
L 88.945458 303.4853 
L 90.849231 304.365403 
L 92.753004 304.145377 
L 94.656777 304.365403 
L 96.560549 304.365403 
L 98.464322 303.045249 
L 100.368095 303.265275 
L 102.271868 302.165146 
L 104.175641 303.705326 
L 106.079414 302.825223 
L 107.983187 302.385172 
L 109.88696 301.725095 
L 111.790733 299.524838 
L 113.694505 298.424709 
L 115.598278 298.644735 
L 117.502051 300.624966 
L 119.405824 302.165146 
L 121.309597 301.065018 
L 123.21337 301.065018 
L 125.117143 300.624966 
L 127.020916 301.725095 
L 128.924689 301.725095 
L 130.828462 302.165146 
L 132.732234 301.065018 
L 136.53978 300.624966 
L 138.443553 299.744864 
L 140.347326 299.524838 
L 142.251099 298.644735 
L 144.154872 300.404941 
L 146.058645 301.945121 
L 147.962418 301.285043 
L 149.86619 301.285043 
L 151.769963 300.624966 
L 153.673736 300.844992 
L 155.577509 299.524838 
L 157.481282 300.184915 
L 159.385055 301.065018 
L 161.288828 302.165146 
L 163.192601 300.844992 
L 165.096374 302.165146 
L 167.000147 302.165146 
L 168.903919 302.825223 
L 172.711465 301.945121 
L 174.615238 301.945121 
L 176.519011 301.725095 
L 178.422784 280.382603 
L 180.326557 263.66065 
L 182.23033 262.340496 
L 184.134103 274.441909 
L 186.037875 283.242937 
L 187.941648 277.742294 
L 189.845421 287.203399 
L 191.749194 289.403656 
L 193.652967 287.863476 
L 195.55674 280.382603 
L 197.460513 277.96232 
L 199.364286 284.563091 
L 201.268059 286.763348 
L 203.171832 289.843707 
L 205.075604 288.963605 
L 206.979377 290.943836 
L 208.88315 291.163862 
L 210.786923 280.382603 
L 212.690696 280.602628 
L 214.594469 281.702757 
L 216.498242 294.244221 
L 218.402015 297.104555 
L 220.305788 296.444478 
L 222.20956 296.664504 
L 224.113333 280.822654 
L 226.017106 281.04268 
L 227.920879 274.441909 
L 229.824652 281.262705 
L 231.728425 281.04268 
L 233.632198 286.103271 
L 235.535971 294.244221 
L 237.439744 297.544607 
L 239.343516 299.744864 
L 241.247289 298.644735 
L 243.151062 299.304812 
L 245.054835 300.184915 
L 246.958608 302.385172 
L 248.862381 301.065018 
L 250.766154 300.404941 
L 252.669927 300.184915 
L 254.5737 301.065018 
L 256.477473 299.744864 
L 260.285018 297.544607 
L 262.188791 298.864761 
L 264.092564 297.764632 
L 265.996337 297.764632 
L 267.90011 297.104555 
L 269.803883 299.304812 
L 271.707656 297.324581 
L 273.611429 297.984658 
L 275.515201 297.984658 
L 277.418974 300.184915 
L 279.322747 300.404941 
L 281.22652 298.864761 
L 283.130293 299.524838 
L 285.034066 298.204684 
L 286.937839 299.084787 
L 288.841612 299.084787 
L 290.745385 299.744864 
L 292.649158 301.285043 
L 294.55293 299.964889 
L 296.456703 298.864761 
L 298.360476 298.864761 
L 300.264249 299.964889 
L 302.168022 301.725095 
L 304.071795 301.725095 
L 305.975568 302.605198 
L 307.879341 301.945121 
L 309.783114 302.165146 
L 311.686886 302.825223 
L 315.494432 301.065018 
L 317.398205 300.624966 
L 319.301978 301.725095 
L 321.205751 302.385172 
L 323.109524 302.825223 
L 325.013297 303.045249 
L 326.91707 303.045249 
L 328.820842 302.825223 
L 330.724615 303.045249 
L 334.532161 303.925352 
L 336.435934 303.4853 
L 340.24348 294.904298 
L 342.147253 294.244221 
L 344.051026 297.104555 
L 345.954799 300.624966 
L 347.858571 301.725095 
L 349.762344 301.725095 
L 351.666117 301.285043 
L 353.56989 299.524838 
L 355.473663 298.424709 
L 357.377436 294.684273 
L 359.281209 296.444478 
L 361.184982 297.764632 
L 363.088755 302.605198 
L 364.992527 302.825223 
L 366.8963 303.705326 
L 368.800073 303.925352 
L 370.703846 301.285043 
L 372.607619 300.624966 
L 374.511392 295.564375 
L 376.415165 297.764632 
L 378.318938 297.984658 
L 380.222711 303.265275 
L 382.126484 302.385172 
L 384.030256 302.605198 
L 385.934029 301.725095 
L 387.837802 302.385172 
L 389.741575 301.725095 
L 391.645348 302.165146 
L 395.452894 303.4853 
L 397.356667 303.4853 
L 399.26044 302.385172 
L 401.164212 300.844992 
L 403.067985 299.524838 
L 404.971758 289.18363 
L 406.875531 289.403656 
L 408.779304 290.72381 
L 410.683077 301.725095 
L 412.58685 302.605198 
L 414.490623 301.285043 
L 416.394396 301.945121 
L 418.298168 301.725095 
L 420.201941 301.945121 
L 424.009487 300.624966 
L 425.91326 301.285043 
L 427.817033 301.285043 
L 429.720806 301.505069 
L 431.624579 301.285043 
L 433.528352 301.285043 
L 435.432125 300.404941 
L 437.335897 298.204684 
L 439.23967 298.424709 
L 441.143443 299.524838 
L 443.047216 302.165146 
L 444.950989 300.404941 
L 446.854762 300.624966 
L 448.758535 300.184915 
L 450.662308 299.524838 
L 452.566081 297.544607 
L 454.469853 296.004427 
L 456.373626 297.544607 
L 458.277399 298.424709 
L 460.181172 298.644735 
L 462.084945 298.644735 
L 465.892491 297.324581 
L 467.796264 297.544607 
L 471.60381 302.825223 
L 473.507582 303.4853 
L 475.411355 301.725095 
L 477.315128 301.285043 
L 479.218901 301.725095 
L 481.122674 300.844992 
L 483.026447 301.065018 
L 484.93022 300.624966 
L 486.833993 303.4853 
L 488.737766 304.145377 
L 490.641538 303.705326 
L 492.545311 298.424709 
L 494.449084 297.324581 
L 496.352857 297.544607 
L 498.25663 301.725095 
L 500.160403 301.945121 
L 502.064176 301.945121 
L 503.967949 300.844992 
L 505.871722 301.725095 
L 507.775495 302.165146 
L 509.679267 302.165146 
L 511.58304 301.505069 
L 513.486813 301.285043 
L 515.390586 303.4853 
L 517.294359 303.925352 
L 519.198132 303.265275 
L 521.101905 303.265275 
L 523.005678 302.825223 
L 524.909451 303.705326 
L 526.813223 303.705326 
L 528.716996 304.145377 
L 530.620769 303.705326 
L 532.524542 302.825223 
L 534.428315 302.385172 
L 536.332088 301.725095 
L 538.235861 301.725095 
L 540.139634 300.624966 
L 542.043407 301.285043 
L 543.947179 295.564375 
L 545.850952 294.024196 
L 547.754725 292.26399 
L 549.658498 296.444478 
L 551.562271 299.084787 
L 553.466044 301.065018 
L 555.369817 301.505069 
L 557.27359 300.404941 
L 559.177363 297.104555 
L 561.081136 296.444478 
L 562.984908 297.544607 
L 564.888681 300.624966 
L 566.792454 302.605198 
L 568.696227 301.505069 
L 568.696227 301.505069 
" clip-path="url(#pd53e471eb6)" style="fill: none; stroke: #ff7f0e; stroke-width: 1.5; stroke-linecap: square"/>
   </g>
   <g id="patch_3">
    <path d="M 50.87 318.04 
L 50.87 26.88 
" style="fill: none; stroke: #000000; stroke-width: 0.8; stroke-linejoin: miter; stroke-linecap: square"/>
   </g>
   <g id="patch_4">
    <path d="M 570.6 318.04 
L 570.6 26.88 
" style="fill: none; stroke: #000000; stroke-width: 0.8; stroke-linejoin: miter; stroke-linecap: square"/>
   </g>
   <g id="patch_5">
    <path d="M 50.87 318.04 
L 570.6 318.04 
" style="fill: none; stroke: #000000; stroke-width: 0.8; stroke-linejoin: miter; stroke-linecap: square"/>
   </g>
   <g id="patch_6">
    <path d="M 50.87 26.88 
L 570.6 26.88 
" style="fill: none; stroke: #000000; stroke-width: 0.8; stroke-linejoin: miter; stroke-linecap: square"/>
   </g>
   <g id="text_17">
    <!-- Number of Revisions per Month (3-Month Rolling Average) -->
    <g transform="translate(136.235312 20.88) scale(0.12 -0.12)">
     <defs>
      <path id="DejaVuSans-70" d="M 1159 525 
L 1159 -1331 
L 581 -1331 
L 581 3500 
L 1159 3500 
L 1159 2969 
Q 1341 3281 1617 3432 
Q 1894 3584 2278 3584 
Q 2916 3584 3314 3078 
Q 3713 2572 3713 1747 
Q 3713 922 3314 415 
Q 2916 -91 2278 -91 
Q 1894 -91 1617 61 
Q 1341 213 1159 525 
z
M 3116 1747 
Q 3116 2381 2855 2742 
Q 2594 3103 2138 3103 
Q 1681 3103 1420 2742 
Q 1159 2381 1159 1747 
Q 1159 1113 1420 752 
Q 1681 391 2138 391 
Q 2594 391 2855 752 
Q 3116 1113 3116 1747 
z
" transform="scale(0.015625)"/>
     </defs>
     <use xlink:href="#DejaVuSans-4e"/>
     <use xlink:href="#DejaVuSans-75" x="74.804688"/>
     <use xlink:href="#DejaVuSans-6d" x="138.183594"/>
     <use xlink:href="#DejaVuSans-62" x="235.595703"/>
     <use xlink:href="#DejaVuSans-65" x="299.072266"/>
     <use xlink:href="#DejaVuSans-72" x="360.595703"/>
     <use xlink:href="#DejaVuSans-20" x="401.708984"/>
     <use xlink:href="#DejaVuSans-6f" x="433.496094"/>
     <use xlink:href="#DejaVuSans-66" x="494.677734"/>
     <use xlink:href="#DejaVuSans-20" x="529.882812"/>
     <use xlink:href="#DejaVuSans-52" x="561.669922"/>
     <use xlink:href="#DejaVuSans-65" x="626.652344"/>
     <use xlink:href="#DejaVuSans-76" x="688.175781"/>
     <use xlink:href="#DejaVuSans-69" x="747.355469"/>
     <use xlink:href="#DejaVuSans-73" x="775.138672"/>
     <use xlink:href="#DejaVuSans-69" x="827.238281"/>
     <use xlink:href="#DejaVuSans-6f" x="855.021484"/>
     <use xlink:href="#DejaVuSans-6e" x="916.203125"/>
     <use xlink:href="#DejaVuSans-73" x="979.582031"/>
     <use xlink:href="#DejaVuSans-20" x="1031.681641"/>
     <use xlink:href="#DejaVuSans-70" x="1063.46875"/>
     <use xlink:href="#DejaVuSans-65" x="1126.945312"/>
     <use xlink:href="#DejaVuSans-72" x="1188.46875"/>
     <use xlink:href="#DejaVuSans-20" x="1229.582031"/>
     <use xlink:href="#DejaVuSans-4d" x="1261.369141"/>
     <use xlink:href="#DejaVuSans-6f" x="1347.648438"/>
     <use xlink:href="#DejaVuSans-6e" x="1408.830078"/>
     <use xlink:href="#DejaVuSans-74" x="1472.208984"/>
     <use xlink:href="#DejaVuSans-68" x="1511.417969"/>
     <use xlink:href="#DejaVuSans-20" x="1574.796875"/>
     <use xlink:href="#DejaVuSans-28" x="1606.583984"/>
     <use xlink:href="#DejaVuSans-33" x="1645.597656"/>
     <use xlink:href="#DejaVuSans-2d" x="1709.220703"/>
     <use xlink:href="#DejaVuSans-4d" x="1745.304688"/>
     <use xlink:href="#DejaVuSans-6f" x="1831.583984"/>
     <use xlink:href="#DejaVuSans-6e" x="1892.765625"/>
     <use xlink:href="#DejaVuSans-74" x="1956.144531"/>
     <use xlink:href="#DejaVuSans-68" x="1995.353516"/>
     <use xlink:href="#DejaVuSans-20" x="2058.732422"/>
     <use xlink:href="#DejaVuSans-52" x="2090.519531"/>
     <use xlink:href="#DejaVuSans-6f" x="2155.501953"/>
     <use xlink:href="#DejaVuSans-6c" x="2216.683594"/>
     <use xlink:href="#DejaVuSans-6c" x="2244.466797"/>
     <use xlink:href="#DejaVuSans-69" x="2272.25"/>
     <use xlink:href="#DejaVuSans-6e" x="2300.033203"/>
     <use xlink:href="#DejaVuSans-67" x="2363.412109"/>
     <use xlink:href="#DejaVuSans-20" x="2426.888672"/>
     <use xlink:href="#DejaVuSans-41" x="2458.675781"/>
     <use xlink:href="#DejaVuSans-76" x="2521.208984"/>
     <use xlink:href="#DejaVuSans-65" x="2580.388672"/>
     <use xlink:href="#DejaVuSans-72" x="2641.912109"/>
     <use xlink:href="#DejaVuSans-61" x="2683.025391"/>
     <use xlink:href="#DejaVuSans-67" x="2744.304688"/>
     <use xlink:href="#DejaVuSans-65" x="2807.78125"/>
     <use xlink:href="#DejaVuSans-29" x="2869.304688"/>
    </g>
   </g>
   <g id="legend_1">
    <g id="patch_7">
     <path d="M 57.87 64.23625 
L 168.790312 64.23625 
Q 170.790312 64.23625 170.790312 62.23625 
L 170.790312 33.88 
Q 170.790312 31.88 168.790312 31.88 
L 57.87 31.88 
Q 55.87 31.88 55.87 33.88 
L 55.87 62.23625 
Q 55.87 64.23625 57.87 64.23625 
z
" style="fill: #ffffff; opacity: 0.8; stroke: #cccccc; stroke-linejoin: miter"/>
    </g>
    <g id="line2d_35">
     <path d="M 59.87 39.978437 
L 69.87 39.978437 
L 79.87 39.978437 
" style="fill: none; stroke: #1f77b4; stroke-width: 1.5; stroke-linecap: square"/>
    </g>
    <g id="text_18">
     <!-- Greta Thunberg -->
     <g transform="translate(87.87 43.478437) scale(0.1 -0.1)">
      <defs>
       <path id="DejaVuSans-47" d="M 3809 666 
L 3809 1919 
L 2778 1919 
L 2778 2438 
L 4434 2438 
L 4434 434 
Q 4069 175 3628 42 
Q 3188 -91 2688 -91 
Q 1594 -91 976 548 
Q 359 1188 359 2328 
Q 359 3472 976 4111 
Q 1594 4750 2688 4750 
Q 3144 4750 3555 4637 
Q 3966 4525 4313 4306 
L 4313 3634 
Q 3963 3931 3569 4081 
Q 3175 4231 2741 4231 
Q 1884 4231 1454 3753 
Q 1025 3275 1025 2328 
Q 1025 1384 1454 906 
Q 1884 428 2741 428 
Q 3075 428 3337 486 
Q 3600 544 3809 666 
z
" transform="scale(0.015625)"/>
       <path id="DejaVuSans-54" d="M -19 4666 
L 3928 4666 
L 3928 4134 
L 2272 4134 
L 2272 0 
L 1638 0 
L 1638 4134 
L -19 4134 
L -19 4666 
z
" transform="scale(0.015625)"/>
      </defs>
      <use xlink:href="#DejaVuSans-47"/>
      <use xlink:href="#DejaVuSans-72" x="77.490234"/>
      <use xlink:href="#DejaVuSans-65" x="116.353516"/>
      <use xlink:href="#DejaVuSans-74" x="177.876953"/>
      <use xlink:href="#DejaVuSans-61" x="217.085938"/>
      <use xlink:href="#DejaVuSans-20" x="278.365234"/>
      <use xlink:href="#DejaVuSans-54" x="310.152344"/>
      <use xlink:href="#DejaVuSans-68" x="371.236328"/>
      <use xlink:href="#DejaVuSans-75" x="434.615234"/>
      <use xlink:href="#DejaVuSans-6e" x="497.994141"/>
      <use xlink:href="#DejaVuSans-62" x="561.373047"/>
      <use xlink:href="#DejaVuSans-65" x="624.849609"/>
      <use xlink:href="#DejaVuSans-72" x="686.373047"/>
      <use xlink:href="#DejaVuSans-67" x="725.736328"/>
     </g>
    </g>
    <g id="line2d_36">
     <path d="M 59.87 54.656563 
L 69.87 54.656563 
L 79.87 54.656563 
" style="fill: none; stroke: #ff7f0e; stroke-width: 1.5; stroke-linecap: square"/>
    </g>
    <g id="text_19">
     <!-- Naomi Klein -->
     <g transform="translate(87.87 58.156563) scale(0.1 -0.1)">
      <defs>
       <path id="DejaVuSans-4b" d="M 628 4666 
L 1259 4666 
L 1259 2694 
L 3353 4666 
L 4166 4666 
L 1850 2491 
L 4331 0 
L 3500 0 
L 1259 2247 
L 1259 0 
L 628 0 
L 628 4666 
z
" transform="scale(0.015625)"/>
      </defs>
      <use xlink:href="#DejaVuSans-4e"/>
      <use xlink:href="#DejaVuSans-61" x="74.804688"/>
      <use xlink:href="#DejaVuSans-6f" x="136.083984"/>
      <use xlink:href="#DejaVuSans-6d" x="197.265625"/>
      <use xlink:href="#DejaVuSans-69" x="294.677734"/>
      <use xlink:href="#DejaVuSans-20" x="322.460938"/>
      <use xlink:href="#DejaVuSans-4b" x="354.248047"/>
      <use xlink:href="#DejaVuSans-6c" x="419.824219"/>
      <use xlink:href="#DejaVuSans-65" x="447.607422"/>
      <use xlink:href="#DejaVuSans-69" x="509.130859"/>
      <use xlink:href="#DejaVuSans-6e" x="536.914062"/>
     </g>
    </g>
   </g>
  </g>
  <g id="axes_2">
   <g id="patch_8">
    <path d="M 621.47 318.04 
L 1141.2 318.04 
L 1141.2 26.88 
L 621.47 26.88 
z
" style="fill: #ffffff"/>
   </g>
   <g id="matplotlib.axis_3">
    <g id="xtick_24">
     <g id="line2d_37">
      <g>
       <use xlink:href="#m6df72878bb" x="667.160549" y="318.04" style="stroke: #000000; stroke-width: 0.8"/>
      </g>
     </g>
     <g id="text_20">
      <!-- 2004 -->
      <g transform="translate(654.435549 332.638438) scale(0.1 -0.1)">
       <use xlink:href="#DejaVuSans-32"/>
       <use xlink:href="#DejaVuSans-30" x="63.623047"/>
       <use xlink:href="#DejaVuSans-30" x="127.246094"/>
       <use xlink:href="#DejaVuSans-34" x="190.869141"/>
      </g>
     </g>
    </g>
    <g id="xtick_25">
     <g id="line2d_38">
      <g>
       <use xlink:href="#m6df72878bb" x="781.386923" y="318.04" style="stroke: #000000; stroke-width: 0.8"/>
      </g>
     </g>
     <g id="text_21">
      <!-- 2009 -->
      <g transform="translate(768.661923 332.638438) scale(0.1 -0.1)">
       <use xlink:href="#DejaVuSans-32"/>
       <use xlink:href="#DejaVuSans-30" x="63.623047"/>
       <use xlink:href="#DejaVuSans-30" x="127.246094"/>
       <use xlink:href="#DejaVuSans-39" x="190.869141"/>
      </g>
     </g>
    </g>
    <g id="xtick_26">
     <g id="line2d_39">
      <g>
       <use xlink:href="#m6df72878bb" x="895.613297" y="318.04" style="stroke: #000000; stroke-width: 0.8"/>
      </g>
     </g>
     <g id="text_22">
      <!-- 2014 -->
      <g transform="translate(882.888297 332.638438) scale(0.1 -0.1)">
       <use xlink:href="#DejaVuSans-32"/>
       <use xlink:href="#DejaVuSans-30" x="63.623047"/>
       <use xlink:href="#DejaVuSans-31" x="127.246094"/>
       <use xlink:href="#DejaVuSans-34" x="190.869141"/>
      </g>
     </g>
    </g>
    <g id="xtick_27">
     <g id="line2d_40">
      <g>
       <use xlink:href="#m6df72878bb" x="1009.83967" y="318.04" style="stroke: #000000; stroke-width: 0.8"/>
      </g>
     </g>
     <g id="text_23">
      <!-- 2019 -->
      <g transform="translate(997.11467 332.638438) scale(0.1 -0.1)">
       <use xlink:href="#DejaVuSans-32"/>
       <use xlink:href="#DejaVuSans-30" x="63.623047"/>
       <use xlink:href="#DejaVuSans-31" x="127.246094"/>
       <use xlink:href="#DejaVuSans-39" x="190.869141"/>
      </g>
     </g>
    </g>
    <g id="xtick_28">
     <g id="line2d_41">
      <g>
       <use xlink:href="#m6df72878bb" x="1124.066044" y="318.04" style="stroke: #000000; stroke-width: 0.8"/>
      </g>
     </g>
     <g id="text_24">
      <!-- 2024 -->
      <g transform="translate(1111.341044 332.638438) scale(0.1 -0.1)">
       <use xlink:href="#DejaVuSans-32"/>
       <use xlink:href="#DejaVuSans-30" x="63.623047"/>
       <use xlink:href="#DejaVuSans-32" x="127.246094"/>
       <use xlink:href="#DejaVuSans-34" x="190.869141"/>
      </g>
     </g>
    </g>
    <g id="xtick_29">
     <g id="line2d_42">
      <g>
       <use xlink:href="#m58988cba4b" x="621.47" y="318.04" style="stroke: #000000; stroke-width: 0.6"/>
      </g>
     </g>
    </g>
    <g id="xtick_30">
     <g id="line2d_43">
      <g>
       <use xlink:href="#m58988cba4b" x="644.315275" y="318.04" style="stroke: #000000; stroke-width: 0.6"/>
      </g>
     </g>
    </g>
    <g id="xtick_31">
     <g id="line2d_44">
      <g>
       <use xlink:href="#m58988cba4b" x="690.005824" y="318.04" style="stroke: #000000; stroke-width: 0.6"/>
      </g>
     </g>
    </g>
    <g id="xtick_32">
     <g id="line2d_45">
      <g>
       <use xlink:href="#m58988cba4b" x="712.851099" y="318.04" style="stroke: #000000; stroke-width: 0.6"/>
      </g>
     </g>
    </g>
    <g id="xtick_33">
     <g id="line2d_46">
      <g>
       <use xlink:href="#m58988cba4b" x="735.696374" y="318.04" style="stroke: #000000; stroke-width: 0.6"/>
      </g>
     </g>
    </g>
    <g id="xtick_34">
     <g id="line2d_47">
      <g>
       <use xlink:href="#m58988cba4b" x="758.541648" y="318.04" style="stroke: #000000; stroke-width: 0.6"/>
      </g>
     </g>
    </g>
    <g id="xtick_35">
     <g id="line2d_48">
      <g>
       <use xlink:href="#m58988cba4b" x="804.232198" y="318.04" style="stroke: #000000; stroke-width: 0.6"/>
      </g>
     </g>
    </g>
    <g id="xtick_36">
     <g id="line2d_49">
      <g>
       <use xlink:href="#m58988cba4b" x="827.077473" y="318.04" style="stroke: #000000; stroke-width: 0.6"/>
      </g>
     </g>
    </g>
    <g id="xtick_37">
     <g id="line2d_50">
      <g>
       <use xlink:href="#m58988cba4b" x="849.922747" y="318.04" style="stroke: #000000; stroke-width: 0.6"/>
      </g>
     </g>
    </g>
    <g id="xtick_38">
     <g id="line2d_51">
      <g>
       <use xlink:href="#m58988cba4b" x="872.768022" y="318.04" style="stroke: #000000; stroke-width: 0.6"/>
      </g>
     </g>
    </g>
    <g id="xtick_39">
     <g id="line2d_52">
      <g>
       <use xlink:href="#m58988cba4b" x="918.458571" y="318.04" style="stroke: #000000; stroke-width: 0.6"/>
      </g>
     </g>
    </g>
    <g id="xtick_40">
     <g id="line2d_53">
      <g>
       <use xlink:href="#m58988cba4b" x="941.303846" y="318.04" style="stroke: #000000; stroke-width: 0.6"/>
      </g>
     </g>
    </g>
    <g id="xtick_41">
     <g id="line2d_54">
      <g>
       <use xlink:href="#m58988cba4b" x="964.149121" y="318.04" style="stroke: #000000; stroke-width: 0.6"/>
      </g>
     </g>
    </g>
    <g id="xtick_42">
     <g id="line2d_55">
      <g>
       <use xlink:href="#m58988cba4b" x="986.994396" y="318.04" style="stroke: #000000; stroke-width: 0.6"/>
      </g>
     </g>
    </g>
    <g id="xtick_43">
     <g id="line2d_56">
      <g>
       <use xlink:href="#m58988cba4b" x="1032.684945" y="318.04" style="stroke: #000000; stroke-width: 0.6"/>
      </g>
     </g>
    </g>
    <g id="xtick_44">
     <g id="line2d_57">
      <g>
       <use xlink:href="#m58988cba4b" x="1055.53022" y="318.04" style="stroke: #000000; stroke-width: 0.6"/>
      </g>
     </g>
    </g>
    <g id="xtick_45">
     <g id="line2d_58">
      <g>
       <use xlink:href="#m58988cba4b" x="1078.375495" y="318.04" style="stroke: #000000; stroke-width: 0.6"/>
      </g>
     </g>
    </g>
    <g id="xtick_46">
     <g id="line2d_59">
      <g>
       <use xlink:href="#m58988cba4b" x="1101.220769" y="318.04" style="stroke: #000000; stroke-width: 0.6"/>
      </g>
     </g>
    </g>
    <g id="text_25">
     <!-- Date -->
     <g transform="translate(869.384219 346.316563) scale(0.1 -0.1)">
      <use xlink:href="#DejaVuSans-44"/>
      <use xlink:href="#DejaVuSans-61" x="77.001953"/>
      <use xlink:href="#DejaVuSans-74" x="138.28125"/>
      <use xlink:href="#DejaVuSans-65" x="177.490234"/>
     </g>
    </g>
   </g>
   <g id="matplotlib.axis_4">
    <g id="ytick_10">
     <g id="line2d_60">
      <g>
       <use xlink:href="#m143b90263e" x="621.47" y="304.805455" style="stroke: #000000; stroke-width: 0.8"/>
      </g>
     </g>
     <g id="text_26">
      <!-- 0 -->
      <g transform="translate(608.1075 308.604673) scale(0.1 -0.1)">
       <use xlink:href="#DejaVuSans-30"/>
      </g>
     </g>
    </g>
    <g id="ytick_11">
     <g id="line2d_61">
      <g>
       <use xlink:href="#m143b90263e" x="621.47" y="260.934033" style="stroke: #000000; stroke-width: 0.8"/>
      </g>
     </g>
     <g id="text_27">
      <!-- 20 -->
      <g transform="translate(601.745 264.733252) scale(0.1 -0.1)">
       <use xlink:href="#DejaVuSans-32"/>
       <use xlink:href="#DejaVuSans-30" x="63.623047"/>
      </g>
     </g>
    </g>
    <g id="ytick_12">
     <g id="line2d_62">
      <g>
       <use xlink:href="#m143b90263e" x="621.47" y="217.062612" style="stroke: #000000; stroke-width: 0.8"/>
      </g>
     </g>
     <g id="text_28">
      <!-- 40 -->
      <g transform="translate(601.745 220.861831) scale(0.1 -0.1)">
       <use xlink:href="#DejaVuSans-34"/>
       <use xlink:href="#DejaVuSans-30" x="63.623047"/>
      </g>
     </g>
    </g>
    <g id="ytick_13">
     <g id="line2d_63">
      <g>
       <use xlink:href="#m143b90263e" x="621.47" y="173.19119" style="stroke: #000000; stroke-width: 0.8"/>
      </g>
     </g>
     <g id="text_29">
      <!-- 60 -->
      <g transform="translate(601.745 176.990409) scale(0.1 -0.1)">
       <defs>
        <path id="DejaVuSans-36" d="M 2113 2584 
Q 1688 2584 1439 2293 
Q 1191 2003 1191 1497 
Q 1191 994 1439 701 
Q 1688 409 2113 409 
Q 2538 409 2786 701 
Q 3034 994 3034 1497 
Q 3034 2003 2786 2293 
Q 2538 2584 2113 2584 
z
M 3366 4563 
L 3366 3988 
Q 3128 4100 2886 4159 
Q 2644 4219 2406 4219 
Q 1781 4219 1451 3797 
Q 1122 3375 1075 2522 
Q 1259 2794 1537 2939 
Q 1816 3084 2150 3084 
Q 2853 3084 3261 2657 
Q 3669 2231 3669 1497 
Q 3669 778 3244 343 
Q 2819 -91 2113 -91 
Q 1303 -91 875 529 
Q 447 1150 447 2328 
Q 447 3434 972 4092 
Q 1497 4750 2381 4750 
Q 2619 4750 2861 4703 
Q 3103 4656 3366 4563 
z
" transform="scale(0.015625)"/>
       </defs>
       <use xlink:href="#DejaVuSans-36"/>
       <use xlink:href="#DejaVuSans-30" x="63.623047"/>
      </g>
     </g>
    </g>
    <g id="ytick_14">
     <g id="line2d_64">
      <g>
       <use xlink:href="#m143b90263e" x="621.47" y="129.319769" style="stroke: #000000; stroke-width: 0.8"/>
      </g>
     </g>
     <g id="text_30">
      <!-- 80 -->
      <g transform="translate(601.745 133.118988) scale(0.1 -0.1)">
       <defs>
        <path id="DejaVuSans-38" d="M 2034 2216 
Q 1584 2216 1326 1975 
Q 1069 1734 1069 1313 
Q 1069 891 1326 650 
Q 1584 409 2034 409 
Q 2484 409 2743 651 
Q 3003 894 3003 1313 
Q 3003 1734 2745 1975 
Q 2488 2216 2034 2216 
z
M 1403 2484 
Q 997 2584 770 2862 
Q 544 3141 544 3541 
Q 544 4100 942 4425 
Q 1341 4750 2034 4750 
Q 2731 4750 3128 4425 
Q 3525 4100 3525 3541 
Q 3525 3141 3298 2862 
Q 3072 2584 2669 2484 
Q 3125 2378 3379 2068 
Q 3634 1759 3634 1313 
Q 3634 634 3220 271 
Q 2806 -91 2034 -91 
Q 1263 -91 848 271 
Q 434 634 434 1313 
Q 434 1759 690 2068 
Q 947 2378 1403 2484 
z
M 1172 3481 
Q 1172 3119 1398 2916 
Q 1625 2713 2034 2713 
Q 2441 2713 2670 2916 
Q 2900 3119 2900 3481 
Q 2900 3844 2670 4047 
Q 2441 4250 2034 4250 
Q 1625 4250 1398 4047 
Q 1172 3844 1172 3481 
z
" transform="scale(0.015625)"/>
       </defs>
       <use xlink:href="#DejaVuSans-38"/>
       <use xlink:href="#DejaVuSans-30" x="63.623047"/>
      </g>
     </g>
    </g>
    <g id="ytick_15">
     <g id="line2d_65">
      <g>
       <use xlink:href="#m143b90263e" x="621.47" y="85.448348" style="stroke: #000000; stroke-width: 0.8"/>
      </g>
     </g>
     <g id="text_31">
      <!-- 100 -->
      <g transform="translate(595.3825 89.247566) scale(0.1 -0.1)">
       <use xlink:href="#DejaVuSans-31"/>
       <use xlink:href="#DejaVuSans-30" x="63.623047"/>
       <use xlink:href="#DejaVuSans-30" x="127.246094"/>
      </g>
     </g>
    </g>
    <g id="ytick_16">
     <g id="line2d_66">
      <g>
       <use xlink:href="#m143b90263e" x="621.47" y="41.576926" style="stroke: #000000; stroke-width: 0.8"/>
      </g>
     </g>
     <g id="text_32">
      <!-- 120 -->
      <g transform="translate(595.3825 45.376145) scale(0.1 -0.1)">
       <use xlink:href="#DejaVuSans-31"/>
       <use xlink:href="#DejaVuSans-32" x="63.623047"/>
       <use xlink:href="#DejaVuSans-30" x="127.246094"/>
      </g>
     </g>
    </g>
    <g id="text_33">
     <!-- Number of Unique Usernames (3-Month Rolling Average) -->
     <g transform="translate(589.302813 314.538906) rotate(-90) scale(0.1 -0.1)">
      <defs>
       <path id="DejaVuSans-55" d="M 556 4666 
L 1191 4666 
L 1191 1831 
Q 1191 1081 1462 751 
Q 1734 422 2344 422 
Q 2950 422 3222 751 
Q 3494 1081 3494 1831 
L 3494 4666 
L 4128 4666 
L 4128 1753 
Q 4128 841 3676 375 
Q 3225 -91 2344 -91 
Q 1459 -91 1007 375 
Q 556 841 556 1753 
L 556 4666 
z
" transform="scale(0.015625)"/>
       <path id="DejaVuSans-71" d="M 947 1747 
Q 947 1113 1208 752 
Q 1469 391 1925 391 
Q 2381 391 2643 752 
Q 2906 1113 2906 1747 
Q 2906 2381 2643 2742 
Q 2381 3103 1925 3103 
Q 1469 3103 1208 2742 
Q 947 2381 947 1747 
z
M 2906 525 
Q 2725 213 2448 61 
Q 2172 -91 1784 -91 
Q 1150 -91 751 415 
Q 353 922 353 1747 
Q 353 2572 751 3078 
Q 1150 3584 1784 3584 
Q 2172 3584 2448 3432 
Q 2725 3281 2906 2969 
L 2906 3500 
L 3481 3500 
L 3481 -1331 
L 2906 -1331 
L 2906 525 
z
" transform="scale(0.015625)"/>
      </defs>
      <use xlink:href="#DejaVuSans-4e"/>
      <use xlink:href="#DejaVuSans-75" x="74.804688"/>
      <use xlink:href="#DejaVuSans-6d" x="138.183594"/>
      <use xlink:href="#DejaVuSans-62" x="235.595703"/>
      <use xlink:href="#DejaVuSans-65" x="299.072266"/>
      <use xlink:href="#DejaVuSans-72" x="360.595703"/>
      <use xlink:href="#DejaVuSans-20" x="401.708984"/>
      <use xlink:href="#DejaVuSans-6f" x="433.496094"/>
      <use xlink:href="#DejaVuSans-66" x="494.677734"/>
      <use xlink:href="#DejaVuSans-20" x="529.882812"/>
      <use xlink:href="#DejaVuSans-55" x="561.669922"/>
      <use xlink:href="#DejaVuSans-6e" x="634.863281"/>
      <use xlink:href="#DejaVuSans-69" x="698.242188"/>
      <use xlink:href="#DejaVuSans-71" x="726.025391"/>
      <use xlink:href="#DejaVuSans-75" x="789.501953"/>
      <use xlink:href="#DejaVuSans-65" x="852.880859"/>
      <use xlink:href="#DejaVuSans-20" x="914.404297"/>
      <use xlink:href="#DejaVuSans-55" x="946.191406"/>
      <use xlink:href="#DejaVuSans-73" x="1019.384766"/>
      <use xlink:href="#DejaVuSans-65" x="1071.484375"/>
      <use xlink:href="#DejaVuSans-72" x="1133.007812"/>
      <use xlink:href="#DejaVuSans-6e" x="1172.371094"/>
      <use xlink:href="#DejaVuSans-61" x="1235.75"/>
      <use xlink:href="#DejaVuSans-6d" x="1297.029297"/>
      <use xlink:href="#DejaVuSans-65" x="1394.441406"/>
      <use xlink:href="#DejaVuSans-73" x="1455.964844"/>
      <use xlink:href="#DejaVuSans-20" x="1508.064453"/>
      <use xlink:href="#DejaVuSans-28" x="1539.851562"/>
      <use xlink:href="#DejaVuSans-33" x="1578.865234"/>
      <use xlink:href="#DejaVuSans-2d" x="1642.488281"/>
      <use xlink:href="#DejaVuSans-4d" x="1678.572266"/>
      <use xlink:href="#DejaVuSans-6f" x="1764.851562"/>
      <use xlink:href="#DejaVuSans-6e" x="1826.033203"/>
      <use xlink:href="#DejaVuSans-74" x="1889.412109"/>
      <use xlink:href="#DejaVuSans-68" x="1928.621094"/>
      <use xlink:href="#DejaVuSans-20" x="1992"/>
      <use xlink:href="#DejaVuSans-52" x="2023.787109"/>
      <use xlink:href="#DejaVuSans-6f" x="2088.769531"/>
      <use xlink:href="#DejaVuSans-6c" x="2149.951172"/>
      <use xlink:href="#DejaVuSans-6c" x="2177.734375"/>
      <use xlink:href="#DejaVuSans-69" x="2205.517578"/>
      <use xlink:href="#DejaVuSans-6e" x="2233.300781"/>
      <use xlink:href="#DejaVuSans-67" x="2296.679688"/>
      <use xlink:href="#DejaVuSans-20" x="2360.15625"/>
      <use xlink:href="#DejaVuSans-41" x="2391.943359"/>
      <use xlink:href="#DejaVuSans-76" x="2454.476562"/>
      <use xlink:href="#DejaVuSans-65" x="2513.65625"/>
      <use xlink:href="#DejaVuSans-72" x="2575.179688"/>
      <use xlink:href="#DejaVuSans-61" x="2616.292969"/>
      <use xlink:href="#DejaVuSans-67" x="2677.572266"/>
      <use xlink:href="#DejaVuSans-65" x="2741.048828"/>
      <use xlink:href="#DejaVuSans-29" x="2802.572266"/>
     </g>
    </g>
   </g>
   <g id="line2d_67">
    <path d="M 1009.83967 227.299277 
L 1011.743443 221.449754 
L 1013.647216 198.051662 
L 1015.550989 182.696665 
L 1017.454762 186.352617 
L 1019.358535 208.288327 
L 1021.262308 187.814997 
L 1023.166081 86.179538 
L 1025.069853 40.114545 
L 1026.973626 61.319066 
L 1028.877399 130.050959 
L 1030.781172 160.029764 
L 1032.684945 169.535239 
L 1034.588718 205.363566 
L 1036.492491 242.654274 
L 1038.396264 257.278081 
L 1040.300037 270.439508 
L 1042.20381 266.052366 
L 1044.107582 270.439508 
L 1046.011355 273.364269 
L 1047.915128 277.751411 
L 1049.818901 276.289031 
L 1051.722674 255.08451 
L 1053.626447 248.503797 
L 1055.53022 241.191894 
L 1057.433993 262.396414 
L 1059.337766 263.127604 
L 1061.241538 268.245937 
L 1063.145311 269.708317 
L 1065.049084 270.439508 
L 1066.952857 274.82665 
L 1068.85663 265.321175 
L 1070.760403 264.589985 
L 1072.664176 261.665224 
L 1074.567949 266.052366 
L 1076.471722 271.901888 
L 1078.375495 278.482602 
L 1080.279267 284.332125 
L 1082.18304 290.181647 
L 1084.086813 290.181647 
L 1085.990586 291.644028 
L 1087.894359 285.063315 
L 1089.798132 281.407363 
L 1091.701905 278.482602 
L 1093.605678 272.633079 
L 1095.509451 266.783556 
L 1097.413223 257.278081 
L 1099.316996 255.08451 
L 1101.220769 263.858795 
L 1103.124542 275.55784 
L 1105.028315 285.794505 
L 1106.932088 284.332125 
L 1108.835861 278.482602 
L 1110.739634 277.751411 
L 1112.643407 274.82665 
L 1114.547179 280.676173 
L 1116.450952 267.514746 
L 1118.354725 267.514746 
L 1120.258498 265.321175 
L 1122.162271 279.944982 
L 1124.066044 279.944982 
L 1125.969817 285.794505 
L 1127.87359 287.256886 
L 1129.777363 292.375218 
L 1131.681136 293.106409 
L 1133.584908 292.375218 
L 1135.488681 290.912838 
L 1137.392454 284.332125 
L 1139.296227 285.063315 
" clip-path="url(#pb11f50418a)" style="fill: none; stroke: #1f77b4; stroke-width: 1.5; stroke-linecap: square"/>
   </g>
   <g id="line2d_68">
    <path d="M 623.373773 301.880693 
L 625.277546 304.074264 
L 627.181319 304.805455 
L 634.79641 304.805455 
L 636.700183 302.611883 
L 638.603956 301.880693 
L 640.507729 301.880693 
L 642.411502 304.074264 
L 644.315275 304.805455 
L 646.219048 304.074264 
L 653.834139 304.074264 
L 655.737912 301.880693 
L 657.641685 302.611883 
L 659.545458 301.880693 
L 661.449231 304.074264 
L 663.353004 303.343074 
L 667.160549 303.343074 
L 669.064322 299.687122 
L 670.968095 300.418312 
L 672.871868 297.493551 
L 674.775641 301.880693 
L 676.679414 300.418312 
L 678.583187 299.687122 
L 680.48696 298.224741 
L 682.390733 294.56879 
L 684.294505 296.03117 
L 686.198278 296.762361 
L 688.102051 299.687122 
L 690.005824 299.687122 
L 691.909597 296.762361 
L 693.81337 296.762361 
L 695.717143 296.03117 
L 697.620916 298.224741 
L 701.428462 301.149503 
L 703.332234 299.687122 
L 705.236007 297.493551 
L 707.13978 296.03117 
L 709.043553 295.29998 
L 710.947326 295.29998 
L 712.851099 293.837599 
L 714.754872 296.03117 
L 716.658645 298.955932 
L 720.46619 298.955932 
L 722.369963 296.762361 
L 724.273736 297.493551 
L 726.177509 295.29998 
L 728.081282 297.493551 
L 731.888828 300.418312 
L 733.792601 298.224741 
L 735.696374 299.687122 
L 737.600147 298.955932 
L 739.503919 300.418312 
L 741.407692 299.687122 
L 743.311465 299.687122 
L 747.119011 296.762361 
L 749.022784 287.256886 
L 750.926557 271.901888 
L 752.83033 268.977127 
L 754.734103 274.82665 
L 756.637875 285.063315 
L 758.541648 281.407363 
L 760.445421 285.794505 
L 762.349194 287.256886 
L 764.252967 290.181647 
L 766.15674 281.407363 
L 768.060513 279.213792 
L 769.964286 282.138553 
L 771.868059 287.988076 
L 773.771832 290.912838 
L 775.675604 288.719267 
L 777.579377 288.719267 
L 779.48315 286.525696 
L 781.386923 283.600934 
L 783.290696 284.332125 
L 785.194469 285.794505 
L 787.098242 291.644028 
L 789.002015 293.837599 
L 790.905788 291.644028 
L 792.80956 290.912838 
L 794.713333 283.600934 
L 796.617106 284.332125 
L 798.520879 280.676173 
L 800.424652 279.213792 
L 802.328425 279.944982 
L 804.232198 282.138553 
L 806.135971 289.450457 
L 808.039744 293.837599 
L 809.943516 296.03117 
L 811.847289 295.29998 
L 813.751062 295.29998 
L 817.558608 299.687122 
L 819.462381 299.687122 
L 821.366154 298.224741 
L 823.269927 298.224741 
L 825.1737 296.762361 
L 827.077473 294.56879 
L 828.981245 293.106409 
L 830.885018 292.375218 
L 832.788791 294.56879 
L 834.692564 293.106409 
L 836.596337 294.56879 
L 838.50011 293.106409 
L 840.403883 295.29998 
L 842.307656 292.375218 
L 844.211429 295.29998 
L 846.115201 297.493551 
L 848.018974 300.418312 
L 849.922747 299.687122 
L 851.82652 296.03117 
L 853.730293 296.762361 
L 855.634066 296.03117 
L 857.537839 296.03117 
L 859.441612 296.762361 
L 861.345385 296.03117 
L 863.249158 299.687122 
L 865.15293 298.955932 
L 868.960476 298.955932 
L 870.864249 298.224741 
L 872.768022 298.955932 
L 876.575568 298.955932 
L 878.479341 297.493551 
L 880.383114 297.493551 
L 882.286886 298.955932 
L 884.190659 299.687122 
L 886.094432 298.224741 
L 887.998205 297.493551 
L 891.805751 298.955932 
L 893.709524 300.418312 
L 895.613297 301.149503 
L 901.324615 301.149503 
L 903.228388 302.611883 
L 905.132161 302.611883 
L 907.035934 300.418312 
L 908.939707 293.837599 
L 910.84348 288.719267 
L 912.747253 289.450457 
L 914.651026 294.56879 
L 916.554799 297.493551 
L 918.458571 299.687122 
L 920.362344 298.224741 
L 922.266117 298.224741 
L 924.16989 295.29998 
L 926.073663 295.29998 
L 927.977436 292.375218 
L 931.784982 295.29998 
L 933.688755 300.418312 
L 935.592527 302.611883 
L 937.4963 303.343074 
L 939.400073 303.343074 
L 943.207619 300.418312 
L 945.111392 296.03117 
L 947.015165 296.03117 
L 948.918938 296.762361 
L 950.822711 301.880693 
L 952.726484 299.687122 
L 954.630256 299.687122 
L 956.534029 297.493551 
L 958.437802 298.224741 
L 960.341575 297.493551 
L 962.245348 298.224741 
L 964.149121 300.418312 
L 966.052894 301.149503 
L 967.956667 301.149503 
L 969.86044 298.224741 
L 971.764212 293.837599 
L 973.667985 293.106409 
L 975.571758 286.525696 
L 977.475531 289.450457 
L 979.379304 290.912838 
L 981.283077 299.687122 
L 983.18685 299.687122 
L 985.090623 296.03117 
L 988.898168 297.493551 
L 990.801941 298.955932 
L 994.609487 296.03117 
L 996.51326 296.762361 
L 998.417033 296.762361 
L 1000.320806 297.493551 
L 1002.224579 299.687122 
L 1004.128352 300.418312 
L 1006.032125 299.687122 
L 1007.935897 297.493551 
L 1009.83967 297.493551 
L 1011.743443 298.224741 
L 1013.647216 298.224741 
L 1015.550989 296.762361 
L 1017.454762 298.224741 
L 1019.358535 298.955932 
L 1021.262308 300.418312 
L 1023.166081 295.29998 
L 1025.069853 293.106409 
L 1026.973626 293.106409 
L 1028.877399 295.29998 
L 1030.781172 294.56879 
L 1032.684945 295.29998 
L 1034.588718 295.29998 
L 1036.492491 292.375218 
L 1038.396264 290.181647 
L 1040.300037 293.837599 
L 1042.20381 300.418312 
L 1044.107582 301.880693 
L 1046.011355 298.955932 
L 1047.915128 297.493551 
L 1049.818901 298.224741 
L 1051.722674 297.493551 
L 1053.626447 299.687122 
L 1055.53022 298.955932 
L 1057.433993 303.343074 
L 1061.241538 303.343074 
L 1063.145311 301.149503 
L 1065.049084 299.687122 
L 1068.85663 299.687122 
L 1070.760403 298.224741 
L 1072.664176 297.493551 
L 1074.567949 294.56879 
L 1076.471722 297.493551 
L 1078.375495 298.955932 
L 1080.279267 299.687122 
L 1082.18304 298.224741 
L 1084.086813 297.493551 
L 1085.990586 301.880693 
L 1087.894359 302.611883 
L 1091.701905 302.611883 
L 1093.605678 301.880693 
L 1097.413223 301.880693 
L 1099.316996 302.611883 
L 1101.220769 302.611883 
L 1103.124542 300.418312 
L 1105.028315 298.955932 
L 1106.932088 296.762361 
L 1108.835861 296.03117 
L 1110.739634 294.56879 
L 1112.643407 296.762361 
L 1114.547179 287.256886 
L 1116.450952 286.525696 
L 1118.354725 281.407363 
L 1120.258498 290.181647 
L 1122.162271 293.106409 
L 1124.066044 298.224741 
L 1125.969817 299.687122 
L 1127.87359 297.493551 
L 1131.681136 291.644028 
L 1133.584908 293.106409 
L 1135.488681 296.03117 
L 1137.392454 299.687122 
L 1139.296227 299.687122 
L 1139.296227 299.687122 
" clip-path="url(#pb11f50418a)" style="fill: none; stroke: #ff7f0e; stroke-width: 1.5; stroke-linecap: square"/>
   </g>
   <g id="patch_9">
    <path d="M 621.47 318.04 
L 621.47 26.88 
" style="fill: none; stroke: #000000; stroke-width: 0.8; stroke-linejoin: miter; stroke-linecap: square"/>
   </g>
   <g id="patch_10">
    <path d="M 1141.2 318.04 
L 1141.2 26.88 
" style="fill: none; stroke: #000000; stroke-width: 0.8; stroke-linejoin: miter; stroke-linecap: square"/>
   </g>
   <g id="patch_11">
    <path d="M 621.47 318.04 
L 1141.2 318.04 
" style="fill: none; stroke: #000000; stroke-width: 0.8; stroke-linejoin: miter; stroke-linecap: square"/>
   </g>
   <g id="patch_12">
    <path d="M 621.47 26.88 
L 1141.2 26.88 
" style="fill: none; stroke: #000000; stroke-width: 0.8; stroke-linejoin: miter; stroke-linecap: square"/>
   </g>
   <g id="text_34">
    <!-- Number of Unique Usernames per Month (3-Month Rolling Average) -->
    <g transform="translate(678.25375 20.88) scale(0.12 -0.12)">
     <use xlink:href="#DejaVuSans-4e"/>
     <use xlink:href="#DejaVuSans-75" x="74.804688"/>
     <use xlink:href="#DejaVuSans-6d" x="138.183594"/>
     <use xlink:href="#DejaVuSans-62" x="235.595703"/>
     <use xlink:href="#DejaVuSans-65" x="299.072266"/>
     <use xlink:href="#DejaVuSans-72" x="360.595703"/>
     <use xlink:href="#DejaVuSans-20" x="401.708984"/>
     <use xlink:href="#DejaVuSans-6f" x="433.496094"/>
     <use xlink:href="#DejaVuSans-66" x="494.677734"/>
     <use xlink:href="#DejaVuSans-20" x="529.882812"/>
     <use xlink:href="#DejaVuSans-55" x="561.669922"/>
     <use xlink:href="#DejaVuSans-6e" x="634.863281"/>
     <use xlink:href="#DejaVuSans-69" x="698.242188"/>
     <use xlink:href="#DejaVuSans-71" x="726.025391"/>
     <use xlink:href="#DejaVuSans-75" x="789.501953"/>
     <use xlink:href="#DejaVuSans-65" x="852.880859"/>
     <use xlink:href="#DejaVuSans-20" x="914.404297"/>
     <use xlink:href="#DejaVuSans-55" x="946.191406"/>
     <use xlink:href="#DejaVuSans-73" x="1019.384766"/>
     <use xlink:href="#DejaVuSans-65" x="1071.484375"/>
     <use xlink:href="#DejaVuSans-72" x="1133.007812"/>
     <use xlink:href="#DejaVuSans-6e" x="1172.371094"/>
     <use xlink:href="#DejaVuSans-61" x="1235.75"/>
     <use xlink:href="#DejaVuSans-6d" x="1297.029297"/>
     <use xlink:href="#DejaVuSans-65" x="1394.441406"/>
     <use xlink:href="#DejaVuSans-73" x="1455.964844"/>
     <use xlink:href="#DejaVuSans-20" x="1508.064453"/>
     <use xlink:href="#DejaVuSans-70" x="1539.851562"/>
     <use xlink:href="#DejaVuSans-65" x="1603.328125"/>
     <use xlink:href="#DejaVuSans-72" x="1664.851562"/>
     <use xlink:href="#DejaVuSans-20" x="1705.964844"/>
     <use xlink:href="#DejaVuSans-4d" x="1737.751953"/>
     <use xlink:href="#DejaVuSans-6f" x="1824.03125"/>
     <use xlink:href="#DejaVuSans-6e" x="1885.212891"/>
     <use xlink:href="#DejaVuSans-74" x="1948.591797"/>
     <use xlink:href="#DejaVuSans-68" x="1987.800781"/>
     <use xlink:href="#DejaVuSans-20" x="2051.179688"/>
     <use xlink:href="#DejaVuSans-28" x="2082.966797"/>
     <use xlink:href="#DejaVuSans-33" x="2121.980469"/>
     <use xlink:href="#DejaVuSans-2d" x="2185.603516"/>
     <use xlink:href="#DejaVuSans-4d" x="2221.6875"/>
     <use xlink:href="#DejaVuSans-6f" x="2307.966797"/>
     <use xlink:href="#DejaVuSans-6e" x="2369.148438"/>
     <use xlink:href="#DejaVuSans-74" x="2432.527344"/>
     <use xlink:href="#DejaVuSans-68" x="2471.736328"/>
     <use xlink:href="#DejaVuSans-20" x="2535.115234"/>
     <use xlink:href="#DejaVuSans-52" x="2566.902344"/>
     <use xlink:href="#DejaVuSans-6f" x="2631.884766"/>
     <use xlink:href="#DejaVuSans-6c" x="2693.066406"/>
     <use xlink:href="#DejaVuSans-6c" x="2720.849609"/>
     <use xlink:href="#DejaVuSans-69" x="2748.632812"/>
     <use xlink:href="#DejaVuSans-6e" x="2776.416016"/>
     <use xlink:href="#DejaVuSans-67" x="2839.794922"/>
     <use xlink:href="#DejaVuSans-20" x="2903.271484"/>
     <use xlink:href="#DejaVuSans-41" x="2935.058594"/>
     <use xlink:href="#DejaVuSans-76" x="2997.591797"/>
     <use xlink:href="#DejaVuSans-65" x="3056.771484"/>
     <use xlink:href="#DejaVuSans-72" x="3118.294922"/>
     <use xlink:href="#DejaVuSans-61" x="3159.408203"/>
     <use xlink:href="#DejaVuSans-67" x="3220.6875"/>
     <use xlink:href="#DejaVuSans-65" x="3284.164062"/>
     <use xlink:href="#DejaVuSans-29" x="3345.6875"/>
    </g>
   </g>
   <g id="legend_2">
    <g id="patch_13">
     <path d="M 628.47 64.23625 
L 739.390313 64.23625 
Q 741.390313 64.23625 741.390313 62.23625 
L 741.390313 33.88 
Q 741.390313 31.88 739.390313 31.88 
L 628.47 31.88 
Q 626.47 31.88 626.47 33.88 
L 626.47 62.23625 
Q 626.47 64.23625 628.47 64.23625 
z
" style="fill: #ffffff; opacity: 0.8; stroke: #cccccc; stroke-linejoin: miter"/>
    </g>
    <g id="line2d_69">
     <path d="M 630.47 39.978437 
L 640.47 39.978437 
L 650.47 39.978437 
" style="fill: none; stroke: #1f77b4; stroke-width: 1.5; stroke-linecap: square"/>
    </g>
    <g id="text_35">
     <!-- Greta Thunberg -->
     <g transform="translate(658.47 43.478437) scale(0.1 -0.1)">
      <use xlink:href="#DejaVuSans-47"/>
      <use xlink:href="#DejaVuSans-72" x="77.490234"/>
      <use xlink:href="#DejaVuSans-65" x="116.353516"/>
      <use xlink:href="#DejaVuSans-74" x="177.876953"/>
      <use xlink:href="#DejaVuSans-61" x="217.085938"/>
      <use xlink:href="#DejaVuSans-20" x="278.365234"/>
      <use xlink:href="#DejaVuSans-54" x="310.152344"/>
      <use xlink:href="#DejaVuSans-68" x="371.236328"/>
      <use xlink:href="#DejaVuSans-75" x="434.615234"/>
      <use xlink:href="#DejaVuSans-6e" x="497.994141"/>
      <use xlink:href="#DejaVuSans-62" x="561.373047"/>
      <use xlink:href="#DejaVuSans-65" x="624.849609"/>
      <use xlink:href="#DejaVuSans-72" x="686.373047"/>
      <use xlink:href="#DejaVuSans-67" x="725.736328"/>
     </g>
    </g>
    <g id="line2d_70">
     <path d="M 630.47 54.656563 
L 640.47 54.656563 
L 650.47 54.656563 
" style="fill: none; stroke: #ff7f0e; stroke-width: 1.5; stroke-linecap: square"/>
    </g>
    <g id="text_36">
     <!-- Naomi Klein -->
     <g transform="translate(658.47 58.156563) scale(0.1 -0.1)">
      <use xlink:href="#DejaVuSans-4e"/>
      <use xlink:href="#DejaVuSans-61" x="74.804688"/>
      <use xlink:href="#DejaVuSans-6f" x="136.083984"/>
      <use xlink:href="#DejaVuSans-6d" x="197.265625"/>
      <use xlink:href="#DejaVuSans-69" x="294.677734"/>
      <use xlink:href="#DejaVuSans-20" x="322.460938"/>
      <use xlink:href="#DejaVuSans-4b" x="354.248047"/>
      <use xlink:href="#DejaVuSans-6c" x="419.824219"/>
      <use xlink:href="#DejaVuSans-65" x="447.607422"/>
      <use xlink:href="#DejaVuSans-69" x="509.130859"/>
      <use xlink:href="#DejaVuSans-6e" x="536.914062"/>
     </g>
    </g>
   </g>
  </g>
 </g>
 <defs>
  <clipPath id="pd53e471eb6">
   <rect x="50.87" y="26.88" width="519.73" height="291.16"/>
  </clipPath>
  <clipPath id="pb11f50418a">
   <rect x="621.47" y="26.88" width="519.73" height="291.16"/>
  </clipPath>
 </defs>
</svg>
