<?xml version="1.0" encoding="utf-8" standalone="no"?>
<!DOCTYPE svg PUBLIC "-//W3C//DTD SVG 1.1//EN"
  "http://www.w3.org/Graphics/SVG/1.1/DTD/svg11.dtd">
<svg xmlns:xlink="http://www.w3.org/1999/xlink" width="576pt" height="360pt" viewBox="0 0 576 360" xmlns="http://www.w3.org/2000/svg" version="1.1">
 <metadata>
  <rdf:RDF xmlns:dc="http://purl.org/dc/elements/1.1/" xmlns:cc="http://creativecommons.org/ns#" xmlns:rdf="http://www.w3.org/1999/02/22-rdf-syntax-ns#">
   <cc:Work>
    <dc:type rdf:resource="http://purl.org/dc/dcmitype/StillImage"/>
    <dc:date>2024-10-27T11:41:00.935834</dc:date>
    <dc:format>image/svg+xml</dc:format>
    <dc:creator>
     <cc:Agent>
      <dc:title>Matplotlib v3.9.2, https://matplotlib.org/</dc:title>
     </cc:Agent>
    </dc:creator>
   </cc:Work>
  </rdf:RDF>
 </metadata>
 <defs>
  <style type="text/css">*{stroke-linejoin: round; stroke-linecap: butt}</style>
 </defs>
 <g id="figure_1">
  <g id="patch_1">
   <path d="M 0 360 
L 576 360 
L 576 0 
L 0 0 
z
" style="fill: #ffffff"/>
  </g>
  <g id="axes_1">
   <g id="patch_2">
    <path d="M 72 169.2 
L 518.4 169.2 
L 518.4 43.2 
L 72 43.2 
z
" style="fill: #ffffff"/>
   </g>
   <g id="matplotlib.axis_1">
    <g id="xtick_1">
     <g id="line2d_1"/>
    </g>
    <g id="xtick_2">
     <g id="line2d_2"/>
    </g>
    <g id="xtick_3">
     <g id="line2d_3"/>
    </g>
    <g id="xtick_4">
     <g id="line2d_4"/>
    </g>
    <g id="xtick_5">
     <g id="line2d_5"/>
    </g>
    <g id="xtick_6">
     <g id="line2d_6"/>
    </g>
    <g id="xtick_7">
     <g id="line2d_7"/>
    </g>
    <g id="xtick_8">
     <g id="line2d_8"/>
    </g>
    <g id="xtick_9">
     <g id="line2d_9"/>
    </g>
    <g id="xtick_10">
     <g id="line2d_10"/>
    </g>
    <g id="xtick_11">
     <g id="line2d_11"/>
    </g>
    <g id="xtick_12">
     <g id="line2d_12"/>
    </g>
    <g id="xtick_13">
     <g id="line2d_13"/>
    </g>
    <g id="xtick_14">
     <g id="line2d_14"/>
    </g>
    <g id="xtick_15">
     <g id="line2d_15"/>
    </g>
    <g id="xtick_16">
     <g id="line2d_16"/>
    </g>
    <g id="xtick_17">
     <g id="line2d_17"/>
    </g>
    <g id="xtick_18">
     <g id="line2d_18"/>
    </g>
   </g>
   <g id="matplotlib.axis_2">
    <g id="ytick_1">
     <g id="line2d_19">
      <defs>
       <path id="m7ce84d9f38" d="M 0 0 
L -3.5 0 
" style="stroke: #000000; stroke-width: 0.8"/>
      </defs>
      <g>
       <use xlink:href="#m7ce84d9f38" x="72" y="163.472727" style="stroke: #000000; stroke-width: 0.8"/>
      </g>
     </g>
     <g id="text_1">
      <!-- 0 -->
      <g transform="translate(58.6375 167.271946) scale(0.1 -0.1)">
       <defs>
        <path id="DejaVuSans-30" d="M 2034 4250 
Q 1547 4250 1301 3770 
Q 1056 3291 1056 2328 
Q 1056 1369 1301 889 
Q 1547 409 2034 409 
Q 2525 409 2770 889 
Q 3016 1369 3016 2328 
Q 3016 3291 2770 3770 
Q 2525 4250 2034 4250 
z
M 2034 4750 
Q 2819 4750 3233 4129 
Q 3647 3509 3647 2328 
Q 3647 1150 3233 529 
Q 2819 -91 2034 -91 
Q 1250 -91 836 529 
Q 422 1150 422 2328 
Q 422 3509 836 4129 
Q 1250 4750 2034 4750 
z
" transform="scale(0.015625)"/>
       </defs>
       <use xlink:href="#DejaVuSans-30"/>
      </g>
     </g>
    </g>
    <g id="ytick_2">
     <g id="line2d_20">
      <g>
       <use xlink:href="#m7ce84d9f38" x="72" y="134.836364" style="stroke: #000000; stroke-width: 0.8"/>
      </g>
     </g>
     <g id="text_2">
      <!-- 20 -->
      <g transform="translate(52.275 138.635582) scale(0.1 -0.1)">
       <defs>
        <path id="DejaVuSans-32" d="M 1228 531 
L 3431 531 
L 3431 0 
L 469 0 
L 469 531 
Q 828 903 1448 1529 
Q 2069 2156 2228 2338 
Q 2531 2678 2651 2914 
Q 2772 3150 2772 3378 
Q 2772 3750 2511 3984 
Q 2250 4219 1831 4219 
Q 1534 4219 1204 4116 
Q 875 4013 500 3803 
L 500 4441 
Q 881 4594 1212 4672 
Q 1544 4750 1819 4750 
Q 2544 4750 2975 4387 
Q 3406 4025 3406 3419 
Q 3406 3131 3298 2873 
Q 3191 2616 2906 2266 
Q 2828 2175 2409 1742 
Q 1991 1309 1228 531 
z
" transform="scale(0.015625)"/>
       </defs>
       <use xlink:href="#DejaVuSans-32"/>
       <use xlink:href="#DejaVuSans-30" x="63.623047"/>
      </g>
     </g>
    </g>
    <g id="ytick_3">
     <g id="line2d_21">
      <g>
       <use xlink:href="#m7ce84d9f38" x="72" y="106.2" style="stroke: #000000; stroke-width: 0.8"/>
      </g>
     </g>
     <g id="text_3">
      <!-- 40 -->
      <g transform="translate(52.275 109.999219) scale(0.1 -0.1)">
       <defs>
        <path id="DejaVuSans-34" d="M 2419 4116 
L 825 1625 
L 2419 1625 
L 2419 4116 
z
M 2253 4666 
L 3047 4666 
L 3047 1625 
L 3713 1625 
L 3713 1100 
L 3047 1100 
L 3047 0 
L 2419 0 
L 2419 1100 
L 313 1100 
L 313 1709 
L 2253 4666 
z
" transform="scale(0.015625)"/>
       </defs>
       <use xlink:href="#DejaVuSans-34"/>
       <use xlink:href="#DejaVuSans-30" x="63.623047"/>
      </g>
     </g>
    </g>
    <g id="ytick_4">
     <g id="line2d_22">
      <g>
       <use xlink:href="#m7ce84d9f38" x="72" y="77.563636" style="stroke: #000000; stroke-width: 0.8"/>
      </g>
     </g>
     <g id="text_4">
      <!-- 60 -->
      <g transform="translate(52.275 81.362855) scale(0.1 -0.1)">
       <defs>
        <path id="DejaVuSans-36" d="M 2113 2584 
Q 1688 2584 1439 2293 
Q 1191 2003 1191 1497 
Q 1191 994 1439 701 
Q 1688 409 2113 409 
Q 2538 409 2786 701 
Q 3034 994 3034 1497 
Q 3034 2003 2786 2293 
Q 2538 2584 2113 2584 
z
M 3366 4563 
L 3366 3988 
Q 3128 4100 2886 4159 
Q 2644 4219 2406 4219 
Q 1781 4219 1451 3797 
Q 1122 3375 1075 2522 
Q 1259 2794 1537 2939 
Q 1816 3084 2150 3084 
Q 2853 3084 3261 2657 
Q 3669 2231 3669 1497 
Q 3669 778 3244 343 
Q 2819 -91 2113 -91 
Q 1303 -91 875 529 
Q 447 1150 447 2328 
Q 447 3434 972 4092 
Q 1497 4750 2381 4750 
Q 2619 4750 2861 4703 
Q 3103 4656 3366 4563 
z
" transform="scale(0.015625)"/>
       </defs>
       <use xlink:href="#DejaVuSans-36"/>
       <use xlink:href="#DejaVuSans-30" x="63.623047"/>
      </g>
     </g>
    </g>
    <g id="ytick_5">
     <g id="line2d_23">
      <g>
       <use xlink:href="#m7ce84d9f38" x="72" y="48.927273" style="stroke: #000000; stroke-width: 0.8"/>
      </g>
     </g>
     <g id="text_5">
      <!-- 80 -->
      <g transform="translate(52.275 52.726491) scale(0.1 -0.1)">
       <defs>
        <path id="DejaVuSans-38" d="M 2034 2216 
Q 1584 2216 1326 1975 
Q 1069 1734 1069 1313 
Q 1069 891 1326 650 
Q 1584 409 2034 409 
Q 2484 409 2743 651 
Q 3003 894 3003 1313 
Q 3003 1734 2745 1975 
Q 2488 2216 2034 2216 
z
M 1403 2484 
Q 997 2584 770 2862 
Q 544 3141 544 3541 
Q 544 4100 942 4425 
Q 1341 4750 2034 4750 
Q 2731 4750 3128 4425 
Q 3525 4100 3525 3541 
Q 3525 3141 3298 2862 
Q 3072 2584 2669 2484 
Q 3125 2378 3379 2068 
Q 3634 1759 3634 1313 
Q 3634 634 3220 271 
Q 2806 -91 2034 -91 
Q 1263 -91 848 271 
Q 434 634 434 1313 
Q 434 1759 690 2068 
Q 947 2378 1403 2484 
z
M 1172 3481 
Q 1172 3119 1398 2916 
Q 1625 2713 2034 2713 
Q 2441 2713 2670 2916 
Q 2900 3119 2900 3481 
Q 2900 3844 2670 4047 
Q 2441 4250 2034 4250 
Q 1625 4250 1398 4047 
Q 1172 3844 1172 3481 
z
" transform="scale(0.015625)"/>
       </defs>
       <use xlink:href="#DejaVuSans-38"/>
       <use xlink:href="#DejaVuSans-30" x="63.623047"/>
      </g>
     </g>
    </g>
    <g id="text_6">
     <!-- Total reversed edits -->
     <g transform="translate(46.195312 155.225781) rotate(-90) scale(0.1 -0.1)">
      <defs>
       <path id="DejaVuSans-54" d="M -19 4666 
L 3928 4666 
L 3928 4134 
L 2272 4134 
L 2272 0 
L 1638 0 
L 1638 4134 
L -19 4134 
L -19 4666 
z
" transform="scale(0.015625)"/>
       <path id="DejaVuSans-6f" d="M 1959 3097 
Q 1497 3097 1228 2736 
Q 959 2375 959 1747 
Q 959 1119 1226 758 
Q 1494 397 1959 397 
Q 2419 397 2687 759 
Q 2956 1122 2956 1747 
Q 2956 2369 2687 2733 
Q 2419 3097 1959 3097 
z
M 1959 3584 
Q 2709 3584 3137 3096 
Q 3566 2609 3566 1747 
Q 3566 888 3137 398 
Q 2709 -91 1959 -91 
Q 1206 -91 779 398 
Q 353 888 353 1747 
Q 353 2609 779 3096 
Q 1206 3584 1959 3584 
z
" transform="scale(0.015625)"/>
       <path id="DejaVuSans-74" d="M 1172 4494 
L 1172 3500 
L 2356 3500 
L 2356 3053 
L 1172 3053 
L 1172 1153 
Q 1172 725 1289 603 
Q 1406 481 1766 481 
L 2356 481 
L 2356 0 
L 1766 0 
Q 1100 0 847 248 
Q 594 497 594 1153 
L 594 3053 
L 172 3053 
L 172 3500 
L 594 3500 
L 594 4494 
L 1172 4494 
z
" transform="scale(0.015625)"/>
       <path id="DejaVuSans-61" d="M 2194 1759 
Q 1497 1759 1228 1600 
Q 959 1441 959 1056 
Q 959 750 1161 570 
Q 1363 391 1709 391 
Q 2188 391 2477 730 
Q 2766 1069 2766 1631 
L 2766 1759 
L 2194 1759 
z
M 3341 1997 
L 3341 0 
L 2766 0 
L 2766 531 
Q 2569 213 2275 61 
Q 1981 -91 1556 -91 
Q 1019 -91 701 211 
Q 384 513 384 1019 
Q 384 1609 779 1909 
Q 1175 2209 1959 2209 
L 2766 2209 
L 2766 2266 
Q 2766 2663 2505 2880 
Q 2244 3097 1772 3097 
Q 1472 3097 1187 3025 
Q 903 2953 641 2809 
L 641 3341 
Q 956 3463 1253 3523 
Q 1550 3584 1831 3584 
Q 2591 3584 2966 3190 
Q 3341 2797 3341 1997 
z
" transform="scale(0.015625)"/>
       <path id="DejaVuSans-6c" d="M 603 4863 
L 1178 4863 
L 1178 0 
L 603 0 
L 603 4863 
z
" transform="scale(0.015625)"/>
       <path id="DejaVuSans-20" transform="scale(0.015625)"/>
       <path id="DejaVuSans-72" d="M 2631 2963 
Q 2534 3019 2420 3045 
Q 2306 3072 2169 3072 
Q 1681 3072 1420 2755 
Q 1159 2438 1159 1844 
L 1159 0 
L 581 0 
L 581 3500 
L 1159 3500 
L 1159 2956 
Q 1341 3275 1631 3429 
Q 1922 3584 2338 3584 
Q 2397 3584 2469 3576 
Q 2541 3569 2628 3553 
L 2631 2963 
z
" transform="scale(0.015625)"/>
       <path id="DejaVuSans-65" d="M 3597 1894 
L 3597 1613 
L 953 1613 
Q 991 1019 1311 708 
Q 1631 397 2203 397 
Q 2534 397 2845 478 
Q 3156 559 3463 722 
L 3463 178 
Q 3153 47 2828 -22 
Q 2503 -91 2169 -91 
Q 1331 -91 842 396 
Q 353 884 353 1716 
Q 353 2575 817 3079 
Q 1281 3584 2069 3584 
Q 2775 3584 3186 3129 
Q 3597 2675 3597 1894 
z
M 3022 2063 
Q 3016 2534 2758 2815 
Q 2500 3097 2075 3097 
Q 1594 3097 1305 2825 
Q 1016 2553 972 2059 
L 3022 2063 
z
" transform="scale(0.015625)"/>
       <path id="DejaVuSans-76" d="M 191 3500 
L 800 3500 
L 1894 563 
L 2988 3500 
L 3597 3500 
L 2284 0 
L 1503 0 
L 191 3500 
z
" transform="scale(0.015625)"/>
       <path id="DejaVuSans-73" d="M 2834 3397 
L 2834 2853 
Q 2591 2978 2328 3040 
Q 2066 3103 1784 3103 
Q 1356 3103 1142 2972 
Q 928 2841 928 2578 
Q 928 2378 1081 2264 
Q 1234 2150 1697 2047 
L 1894 2003 
Q 2506 1872 2764 1633 
Q 3022 1394 3022 966 
Q 3022 478 2636 193 
Q 2250 -91 1575 -91 
Q 1294 -91 989 -36 
Q 684 19 347 128 
L 347 722 
Q 666 556 975 473 
Q 1284 391 1588 391 
Q 1994 391 2212 530 
Q 2431 669 2431 922 
Q 2431 1156 2273 1281 
Q 2116 1406 1581 1522 
L 1381 1569 
Q 847 1681 609 1914 
Q 372 2147 372 2553 
Q 372 3047 722 3315 
Q 1072 3584 1716 3584 
Q 2034 3584 2315 3537 
Q 2597 3491 2834 3397 
z
" transform="scale(0.015625)"/>
       <path id="DejaVuSans-64" d="M 2906 2969 
L 2906 4863 
L 3481 4863 
L 3481 0 
L 2906 0 
L 2906 525 
Q 2725 213 2448 61 
Q 2172 -91 1784 -91 
Q 1150 -91 751 415 
Q 353 922 353 1747 
Q 353 2572 751 3078 
Q 1150 3584 1784 3584 
Q 2172 3584 2448 3432 
Q 2725 3281 2906 2969 
z
M 947 1747 
Q 947 1113 1208 752 
Q 1469 391 1925 391 
Q 2381 391 2643 752 
Q 2906 1113 2906 1747 
Q 2906 2381 2643 2742 
Q 2381 3103 1925 3103 
Q 1469 3103 1208 2742 
Q 947 2381 947 1747 
z
" transform="scale(0.015625)"/>
       <path id="DejaVuSans-69" d="M 603 3500 
L 1178 3500 
L 1178 0 
L 603 0 
L 603 3500 
z
M 603 4863 
L 1178 4863 
L 1178 4134 
L 603 4134 
L 603 4863 
z
" transform="scale(0.015625)"/>
      </defs>
      <use xlink:href="#DejaVuSans-54"/>
      <use xlink:href="#DejaVuSans-6f" x="44.083984"/>
      <use xlink:href="#DejaVuSans-74" x="105.265625"/>
      <use xlink:href="#DejaVuSans-61" x="144.474609"/>
      <use xlink:href="#DejaVuSans-6c" x="205.753906"/>
      <use xlink:href="#DejaVuSans-20" x="233.537109"/>
      <use xlink:href="#DejaVuSans-72" x="265.324219"/>
      <use xlink:href="#DejaVuSans-65" x="304.1875"/>
      <use xlink:href="#DejaVuSans-76" x="365.710938"/>
      <use xlink:href="#DejaVuSans-65" x="424.890625"/>
      <use xlink:href="#DejaVuSans-72" x="486.414062"/>
      <use xlink:href="#DejaVuSans-73" x="527.527344"/>
      <use xlink:href="#DejaVuSans-65" x="579.626953"/>
      <use xlink:href="#DejaVuSans-64" x="641.150391"/>
      <use xlink:href="#DejaVuSans-20" x="704.626953"/>
      <use xlink:href="#DejaVuSans-65" x="736.414062"/>
      <use xlink:href="#DejaVuSans-64" x="797.9375"/>
      <use xlink:href="#DejaVuSans-69" x="861.414062"/>
      <use xlink:href="#DejaVuSans-74" x="889.197266"/>
      <use xlink:href="#DejaVuSans-73" x="928.40625"/>
     </g>
    </g>
   </g>
   <g id="line2d_24">
    <path d="M 371.695775 153.45 
L 373.791549 140.563636 
L 375.887324 136.268182 
L 377.983099 123.381818 
L 380.078873 101.904545 
L 382.174648 111.927273 
L 384.270423 126.245455 
L 386.366197 134.836364 
L 388.461972 84.722727 
L 390.557746 63.245455 
L 392.653521 111.927273 
L 394.749296 124.813636 
L 396.84507 144.859091 
L 398.940845 137.7 
L 401.03662 157.745455 
L 403.132394 140.563636 
L 405.228169 162.040909 
L 407.323944 153.45 
L 409.419718 150.586364 
L 411.515493 157.745455 
L 413.611268 159.177273 
L 415.707042 157.745455 
L 417.802817 159.177273 
L 419.898592 156.313636 
L 421.994366 124.813636 
L 424.090141 160.609091 
L 426.185915 154.881818 
L 428.28169 162.040909 
L 430.377465 154.881818 
L 432.473239 162.040909 
L 434.569014 156.313636 
L 436.664789 163.472727 
L 438.760563 162.040909 
L 440.856338 163.472727 
L 442.952113 159.177273 
L 445.047887 162.040909 
L 447.143662 162.040909 
L 449.239437 157.745455 
L 451.335211 163.472727 
L 453.430986 159.177273 
L 455.526761 162.040909 
L 457.622535 163.472727 
L 459.71831 163.472727 
L 461.814085 160.609091 
L 463.909859 160.609091 
L 466.005634 162.040909 
L 468.101408 162.040909 
L 470.197183 162.040909 
L 472.292958 156.313636 
L 474.388732 156.313636 
L 476.484507 162.040909 
L 478.580282 162.040909 
L 480.676056 162.040909 
L 482.771831 160.609091 
L 484.867606 162.040909 
L 486.96338 160.609091 
L 489.059155 160.609091 
L 491.15493 159.177273 
L 493.250704 159.177273 
L 495.346479 157.745455 
L 497.442254 163.472727 
L 499.538028 162.040909 
L 501.633803 159.177273 
L 503.729577 163.472727 
L 505.825352 163.472727 
L 507.921127 163.472727 
L 510.016901 163.472727 
L 512.112676 162.040909 
L 514.208451 163.472727 
L 516.304225 163.472727 
L 518.4 160.609091 
" clip-path="url(#p6833b8c583)" style="fill: none; stroke: #1f77b4; stroke-width: 1.5; stroke-linecap: square"/>
   </g>
   <g id="line2d_25">
    <path d="M 0.743662 162.040909 
L 2.839437 163.472727 
L 7.030986 163.472727 
L 9.126761 160.609091 
L 11.222535 163.472727 
L 19.605634 163.472727 
L 21.701408 162.040909 
L 23.797183 163.472727 
L 67.808451 163.472727 
L 69.904225 162.040909 
L 72 163.472727 
L 74.095775 162.040909 
L 76.191549 163.472727 
L 78.287324 162.040909 
L 80.383099 163.472727 
L 86.670423 163.472727 
L 88.766197 119.086364 
L 90.861972 124.813636 
L 92.957746 162.040909 
L 95.053521 153.45 
L 97.149296 156.313636 
L 99.24507 149.154545 
L 101.340845 163.472727 
L 103.43662 160.609091 
L 105.532394 156.313636 
L 107.628169 159.177273 
L 109.723944 154.881818 
L 111.819718 159.177273 
L 113.915493 159.177273 
L 116.011268 156.313636 
L 118.107042 159.177273 
L 120.202817 159.177273 
L 122.298592 162.040909 
L 124.394366 159.177273 
L 126.490141 163.472727 
L 128.585915 160.609091 
L 130.68169 159.177273 
L 132.777465 162.040909 
L 134.873239 159.177273 
L 136.969014 162.040909 
L 139.064789 150.586364 
L 141.160563 156.313636 
L 143.256338 156.313636 
L 145.352113 154.881818 
L 147.447887 156.313636 
L 149.543662 159.177273 
L 153.735211 159.177273 
L 155.830986 163.472727 
L 157.926761 160.609091 
L 160.022535 163.472727 
L 164.214085 163.472727 
L 166.309859 157.745455 
L 168.405634 162.040909 
L 170.501408 162.040909 
L 172.597183 160.609091 
L 174.692958 162.040909 
L 176.788732 162.040909 
L 178.884507 156.313636 
L 180.980282 163.472727 
L 183.076056 159.177273 
L 185.171831 162.040909 
L 189.36338 162.040909 
L 191.459155 159.177273 
L 193.55493 163.472727 
L 195.650704 163.472727 
L 197.746479 160.609091 
L 201.938028 163.472727 
L 204.033803 160.609091 
L 206.129577 163.472727 
L 208.225352 162.040909 
L 210.321127 163.472727 
L 212.416901 162.040909 
L 214.512676 163.472727 
L 216.608451 163.472727 
L 218.704225 162.040909 
L 222.895775 162.040909 
L 224.991549 163.472727 
L 229.183099 160.609091 
L 233.374648 163.472727 
L 235.470423 163.472727 
L 237.566197 162.040909 
L 239.661972 163.472727 
L 262.715493 163.472727 
L 264.811268 156.313636 
L 266.907042 162.040909 
L 269.002817 159.177273 
L 271.098592 163.472727 
L 273.194366 162.040909 
L 277.385915 162.040909 
L 279.48169 160.609091 
L 281.577465 162.040909 
L 283.673239 159.177273 
L 285.769014 149.154545 
L 287.864789 163.472727 
L 289.960563 160.609091 
L 292.056338 163.472727 
L 302.535211 163.472727 
L 304.630986 150.586364 
L 306.726761 163.472727 
L 319.301408 163.472727 
L 321.397183 162.040909 
L 323.492958 163.472727 
L 329.780282 163.472727 
L 331.876056 160.609091 
L 336.067606 163.472727 
L 338.16338 156.313636 
L 340.259155 163.472727 
L 350.738028 163.472727 
L 352.833803 162.040909 
L 354.929577 163.472727 
L 367.504225 163.472727 
L 369.6 162.040909 
L 371.695775 157.745455 
L 373.791549 159.177273 
L 375.887324 163.472727 
L 380.078873 163.472727 
L 382.174648 162.040909 
L 384.270423 163.472727 
L 386.366197 159.177273 
L 388.461972 162.040909 
L 390.557746 163.472727 
L 392.653521 160.609091 
L 394.749296 162.040909 
L 398.940845 162.040909 
L 401.03662 163.472727 
L 403.132394 163.472727 
L 405.228169 157.745455 
L 407.323944 162.040909 
L 409.419718 163.472727 
L 411.515493 162.040909 
L 413.611268 163.472727 
L 415.707042 162.040909 
L 417.802817 163.472727 
L 419.898592 163.472727 
L 421.994366 156.313636 
L 424.090141 163.472727 
L 432.473239 163.472727 
L 434.569014 162.040909 
L 436.664789 163.472727 
L 438.760563 162.040909 
L 440.856338 162.040909 
L 442.952113 163.472727 
L 466.005634 163.472727 
L 468.101408 162.040909 
L 470.197183 163.472727 
L 489.059155 163.472727 
L 491.15493 162.040909 
L 493.250704 162.040909 
L 495.346479 163.472727 
L 499.538028 163.472727 
L 501.633803 162.040909 
L 503.729577 163.472727 
L 505.825352 163.472727 
L 507.921127 162.040909 
L 510.016901 163.472727 
L 512.112676 162.040909 
L 512.112676 162.040909 
" clip-path="url(#p6833b8c583)" style="fill: none; stroke: #ff7f0e; stroke-width: 1.5; stroke-linecap: square"/>
   </g>
   <g id="LineCollection_1">
    <path d="M 88.766197 163.472727 
L 88.766197 48.927273 
" clip-path="url(#p6833b8c583)" style="fill: none; stroke-dasharray: 5.55,2.4; stroke-dashoffset: 0; stroke: #a24936; stroke-opacity: 0.5; stroke-width: 1.5"/>
   </g>
   <g id="LineCollection_2">
    <path d="M 363.312676 163.472727 
L 363.312676 48.927273 
" clip-path="url(#p6833b8c583)" style="fill: none; stroke-dasharray: 5.55,2.4; stroke-dashoffset: 0; stroke: #1c2541; stroke-opacity: 0.5; stroke-width: 1.5"/>
   </g>
   <g id="patch_3">
    <path d="M 72 169.2 
L 72 43.2 
" style="fill: none; stroke: #000000; stroke-width: 0.8; stroke-linejoin: miter; stroke-linecap: square"/>
   </g>
   <g id="patch_4">
    <path d="M 518.4 169.2 
L 518.4 43.2 
" style="fill: none; stroke: #000000; stroke-width: 0.8; stroke-linejoin: miter; stroke-linecap: square"/>
   </g>
   <g id="patch_5">
    <path d="M 72 169.2 
L 518.4 169.2 
" style="fill: none; stroke: #000000; stroke-width: 0.8; stroke-linejoin: miter; stroke-linecap: square"/>
   </g>
   <g id="patch_6">
    <path d="M 72 43.2 
L 518.4 43.2 
" style="fill: none; stroke: #000000; stroke-width: 0.8; stroke-linejoin: miter; stroke-linecap: square"/>
   </g>
   <g id="text_7">
    <!-- Being seen is being corrected: Monthly reverts -->
    <g transform="translate(155.025 37.2) scale(0.12 -0.12)">
     <defs>
      <path id="DejaVuSans-42" d="M 1259 2228 
L 1259 519 
L 2272 519 
Q 2781 519 3026 730 
Q 3272 941 3272 1375 
Q 3272 1813 3026 2020 
Q 2781 2228 2272 2228 
L 1259 2228 
z
M 1259 4147 
L 1259 2741 
L 2194 2741 
Q 2656 2741 2882 2914 
Q 3109 3088 3109 3444 
Q 3109 3797 2882 3972 
Q 2656 4147 2194 4147 
L 1259 4147 
z
M 628 4666 
L 2241 4666 
Q 2963 4666 3353 4366 
Q 3744 4066 3744 3513 
Q 3744 3084 3544 2831 
Q 3344 2578 2956 2516 
Q 3422 2416 3680 2098 
Q 3938 1781 3938 1306 
Q 3938 681 3513 340 
Q 3088 0 2303 0 
L 628 0 
L 628 4666 
z
" transform="scale(0.015625)"/>
      <path id="DejaVuSans-6e" d="M 3513 2113 
L 3513 0 
L 2938 0 
L 2938 2094 
Q 2938 2591 2744 2837 
Q 2550 3084 2163 3084 
Q 1697 3084 1428 2787 
Q 1159 2491 1159 1978 
L 1159 0 
L 581 0 
L 581 3500 
L 1159 3500 
L 1159 2956 
Q 1366 3272 1645 3428 
Q 1925 3584 2291 3584 
Q 2894 3584 3203 3211 
Q 3513 2838 3513 2113 
z
" transform="scale(0.015625)"/>
      <path id="DejaVuSans-67" d="M 2906 1791 
Q 2906 2416 2648 2759 
Q 2391 3103 1925 3103 
Q 1463 3103 1205 2759 
Q 947 2416 947 1791 
Q 947 1169 1205 825 
Q 1463 481 1925 481 
Q 2391 481 2648 825 
Q 2906 1169 2906 1791 
z
M 3481 434 
Q 3481 -459 3084 -895 
Q 2688 -1331 1869 -1331 
Q 1566 -1331 1297 -1286 
Q 1028 -1241 775 -1147 
L 775 -588 
Q 1028 -725 1275 -790 
Q 1522 -856 1778 -856 
Q 2344 -856 2625 -561 
Q 2906 -266 2906 331 
L 2906 616 
Q 2728 306 2450 153 
Q 2172 0 1784 0 
Q 1141 0 747 490 
Q 353 981 353 1791 
Q 353 2603 747 3093 
Q 1141 3584 1784 3584 
Q 2172 3584 2450 3431 
Q 2728 3278 2906 2969 
L 2906 3500 
L 3481 3500 
L 3481 434 
z
" transform="scale(0.015625)"/>
      <path id="DejaVuSans-62" d="M 3116 1747 
Q 3116 2381 2855 2742 
Q 2594 3103 2138 3103 
Q 1681 3103 1420 2742 
Q 1159 2381 1159 1747 
Q 1159 1113 1420 752 
Q 1681 391 2138 391 
Q 2594 391 2855 752 
Q 3116 1113 3116 1747 
z
M 1159 2969 
Q 1341 3281 1617 3432 
Q 1894 3584 2278 3584 
Q 2916 3584 3314 3078 
Q 3713 2572 3713 1747 
Q 3713 922 3314 415 
Q 2916 -91 2278 -91 
Q 1894 -91 1617 61 
Q 1341 213 1159 525 
L 1159 0 
L 581 0 
L 581 4863 
L 1159 4863 
L 1159 2969 
z
" transform="scale(0.015625)"/>
      <path id="DejaVuSans-63" d="M 3122 3366 
L 3122 2828 
Q 2878 2963 2633 3030 
Q 2388 3097 2138 3097 
Q 1578 3097 1268 2742 
Q 959 2388 959 1747 
Q 959 1106 1268 751 
Q 1578 397 2138 397 
Q 2388 397 2633 464 
Q 2878 531 3122 666 
L 3122 134 
Q 2881 22 2623 -34 
Q 2366 -91 2075 -91 
Q 1284 -91 818 406 
Q 353 903 353 1747 
Q 353 2603 823 3093 
Q 1294 3584 2113 3584 
Q 2378 3584 2631 3529 
Q 2884 3475 3122 3366 
z
" transform="scale(0.015625)"/>
      <path id="DejaVuSans-3a" d="M 750 794 
L 1409 794 
L 1409 0 
L 750 0 
L 750 794 
z
M 750 3309 
L 1409 3309 
L 1409 2516 
L 750 2516 
L 750 3309 
z
" transform="scale(0.015625)"/>
      <path id="DejaVuSans-4d" d="M 628 4666 
L 1569 4666 
L 2759 1491 
L 3956 4666 
L 4897 4666 
L 4897 0 
L 4281 0 
L 4281 4097 
L 3078 897 
L 2444 897 
L 1241 4097 
L 1241 0 
L 628 0 
L 628 4666 
z
" transform="scale(0.015625)"/>
      <path id="DejaVuSans-68" d="M 3513 2113 
L 3513 0 
L 2938 0 
L 2938 2094 
Q 2938 2591 2744 2837 
Q 2550 3084 2163 3084 
Q 1697 3084 1428 2787 
Q 1159 2491 1159 1978 
L 1159 0 
L 581 0 
L 581 4863 
L 1159 4863 
L 1159 2956 
Q 1366 3272 1645 3428 
Q 1925 3584 2291 3584 
Q 2894 3584 3203 3211 
Q 3513 2838 3513 2113 
z
" transform="scale(0.015625)"/>
      <path id="DejaVuSans-79" d="M 2059 -325 
Q 1816 -950 1584 -1140 
Q 1353 -1331 966 -1331 
L 506 -1331 
L 506 -850 
L 844 -850 
Q 1081 -850 1212 -737 
Q 1344 -625 1503 -206 
L 1606 56 
L 191 3500 
L 800 3500 
L 1894 763 
L 2988 3500 
L 3597 3500 
L 2059 -325 
z
" transform="scale(0.015625)"/>
     </defs>
     <use xlink:href="#DejaVuSans-42"/>
     <use xlink:href="#DejaVuSans-65" x="68.603516"/>
     <use xlink:href="#DejaVuSans-69" x="130.126953"/>
     <use xlink:href="#DejaVuSans-6e" x="157.910156"/>
     <use xlink:href="#DejaVuSans-67" x="221.289062"/>
     <use xlink:href="#DejaVuSans-20" x="284.765625"/>
     <use xlink:href="#DejaVuSans-73" x="316.552734"/>
     <use xlink:href="#DejaVuSans-65" x="368.652344"/>
     <use xlink:href="#DejaVuSans-65" x="430.175781"/>
     <use xlink:href="#DejaVuSans-6e" x="491.699219"/>
     <use xlink:href="#DejaVuSans-20" x="555.078125"/>
     <use xlink:href="#DejaVuSans-69" x="586.865234"/>
     <use xlink:href="#DejaVuSans-73" x="614.648438"/>
     <use xlink:href="#DejaVuSans-20" x="666.748047"/>
     <use xlink:href="#DejaVuSans-62" x="698.535156"/>
     <use xlink:href="#DejaVuSans-65" x="762.011719"/>
     <use xlink:href="#DejaVuSans-69" x="823.535156"/>
     <use xlink:href="#DejaVuSans-6e" x="851.318359"/>
     <use xlink:href="#DejaVuSans-67" x="914.697266"/>
     <use xlink:href="#DejaVuSans-20" x="978.173828"/>
     <use xlink:href="#DejaVuSans-63" x="1009.960938"/>
     <use xlink:href="#DejaVuSans-6f" x="1064.941406"/>
     <use xlink:href="#DejaVuSans-72" x="1126.123047"/>
     <use xlink:href="#DejaVuSans-72" x="1165.486328"/>
     <use xlink:href="#DejaVuSans-65" x="1204.349609"/>
     <use xlink:href="#DejaVuSans-63" x="1265.873047"/>
     <use xlink:href="#DejaVuSans-74" x="1320.853516"/>
     <use xlink:href="#DejaVuSans-65" x="1360.0625"/>
     <use xlink:href="#DejaVuSans-64" x="1421.585938"/>
     <use xlink:href="#DejaVuSans-3a" x="1485.0625"/>
     <use xlink:href="#DejaVuSans-20" x="1518.753906"/>
     <use xlink:href="#DejaVuSans-4d" x="1550.541016"/>
     <use xlink:href="#DejaVuSans-6f" x="1636.820312"/>
     <use xlink:href="#DejaVuSans-6e" x="1698.001953"/>
     <use xlink:href="#DejaVuSans-74" x="1761.380859"/>
     <use xlink:href="#DejaVuSans-68" x="1800.589844"/>
     <use xlink:href="#DejaVuSans-6c" x="1863.96875"/>
     <use xlink:href="#DejaVuSans-79" x="1891.751953"/>
     <use xlink:href="#DejaVuSans-20" x="1950.931641"/>
     <use xlink:href="#DejaVuSans-72" x="1982.71875"/>
     <use xlink:href="#DejaVuSans-65" x="2021.582031"/>
     <use xlink:href="#DejaVuSans-76" x="2083.105469"/>
     <use xlink:href="#DejaVuSans-65" x="2142.285156"/>
     <use xlink:href="#DejaVuSans-72" x="2203.808594"/>
     <use xlink:href="#DejaVuSans-74" x="2244.921875"/>
     <use xlink:href="#DejaVuSans-73" x="2284.130859"/>
    </g>
   </g>
   <g id="legend_1">
    <g id="patch_7">
     <path d="M 400.479687 80.55625 
L 511.4 80.55625 
Q 513.4 80.55625 513.4 78.55625 
L 513.4 50.2 
Q 513.4 48.2 511.4 48.2 
L 400.479687 48.2 
Q 398.479687 48.2 398.479687 50.2 
L 398.479687 78.55625 
Q 398.479687 80.55625 400.479687 80.55625 
z
" style="fill: #ffffff; opacity: 0.8; stroke: #cccccc; stroke-linejoin: miter"/>
    </g>
    <g id="line2d_26">
     <path d="M 402.479687 56.298437 
L 412.479687 56.298437 
L 422.479687 56.298437 
" style="fill: none; stroke: #1f77b4; stroke-width: 1.5; stroke-linecap: square"/>
    </g>
    <g id="text_8">
     <!-- Greta Thunberg -->
     <g transform="translate(430.479687 59.798437) scale(0.1 -0.1)">
      <defs>
       <path id="DejaVuSans-47" d="M 3809 666 
L 3809 1919 
L 2778 1919 
L 2778 2438 
L 4434 2438 
L 4434 434 
Q 4069 175 3628 42 
Q 3188 -91 2688 -91 
Q 1594 -91 976 548 
Q 359 1188 359 2328 
Q 359 3472 976 4111 
Q 1594 4750 2688 4750 
Q 3144 4750 3555 4637 
Q 3966 4525 4313 4306 
L 4313 3634 
Q 3963 3931 3569 4081 
Q 3175 4231 2741 4231 
Q 1884 4231 1454 3753 
Q 1025 3275 1025 2328 
Q 1025 1384 1454 906 
Q 1884 428 2741 428 
Q 3075 428 3337 486 
Q 3600 544 3809 666 
z
" transform="scale(0.015625)"/>
       <path id="DejaVuSans-75" d="M 544 1381 
L 544 3500 
L 1119 3500 
L 1119 1403 
Q 1119 906 1312 657 
Q 1506 409 1894 409 
Q 2359 409 2629 706 
Q 2900 1003 2900 1516 
L 2900 3500 
L 3475 3500 
L 3475 0 
L 2900 0 
L 2900 538 
Q 2691 219 2414 64 
Q 2138 -91 1772 -91 
Q 1169 -91 856 284 
Q 544 659 544 1381 
z
M 1991 3584 
L 1991 3584 
z
" transform="scale(0.015625)"/>
      </defs>
      <use xlink:href="#DejaVuSans-47"/>
      <use xlink:href="#DejaVuSans-72" x="77.490234"/>
      <use xlink:href="#DejaVuSans-65" x="116.353516"/>
      <use xlink:href="#DejaVuSans-74" x="177.876953"/>
      <use xlink:href="#DejaVuSans-61" x="217.085938"/>
      <use xlink:href="#DejaVuSans-20" x="278.365234"/>
      <use xlink:href="#DejaVuSans-54" x="310.152344"/>
      <use xlink:href="#DejaVuSans-68" x="371.236328"/>
      <use xlink:href="#DejaVuSans-75" x="434.615234"/>
      <use xlink:href="#DejaVuSans-6e" x="497.994141"/>
      <use xlink:href="#DejaVuSans-62" x="561.373047"/>
      <use xlink:href="#DejaVuSans-65" x="624.849609"/>
      <use xlink:href="#DejaVuSans-72" x="686.373047"/>
      <use xlink:href="#DejaVuSans-67" x="725.736328"/>
     </g>
    </g>
    <g id="line2d_27">
     <path d="M 402.479687 70.976562 
L 412.479687 70.976562 
L 422.479687 70.976562 
" style="fill: none; stroke: #ff7f0e; stroke-width: 1.5; stroke-linecap: square"/>
    </g>
    <g id="text_9">
     <!-- Naomi Klein -->
     <g transform="translate(430.479687 74.476562) scale(0.1 -0.1)">
      <defs>
       <path id="DejaVuSans-4e" d="M 628 4666 
L 1478 4666 
L 3547 763 
L 3547 4666 
L 4159 4666 
L 4159 0 
L 3309 0 
L 1241 3903 
L 1241 0 
L 628 0 
L 628 4666 
z
" transform="scale(0.015625)"/>
       <path id="DejaVuSans-6d" d="M 3328 2828 
Q 3544 3216 3844 3400 
Q 4144 3584 4550 3584 
Q 5097 3584 5394 3201 
Q 5691 2819 5691 2113 
L 5691 0 
L 5113 0 
L 5113 2094 
Q 5113 2597 4934 2840 
Q 4756 3084 4391 3084 
Q 3944 3084 3684 2787 
Q 3425 2491 3425 1978 
L 3425 0 
L 2847 0 
L 2847 2094 
Q 2847 2600 2669 2842 
Q 2491 3084 2119 3084 
Q 1678 3084 1418 2786 
Q 1159 2488 1159 1978 
L 1159 0 
L 581 0 
L 581 3500 
L 1159 3500 
L 1159 2956 
Q 1356 3278 1631 3431 
Q 1906 3584 2284 3584 
Q 2666 3584 2933 3390 
Q 3200 3197 3328 2828 
z
" transform="scale(0.015625)"/>
       <path id="DejaVuSans-4b" d="M 628 4666 
L 1259 4666 
L 1259 2694 
L 3353 4666 
L 4166 4666 
L 1850 2491 
L 4331 0 
L 3500 0 
L 1259 2247 
L 1259 0 
L 628 0 
L 628 4666 
z
" transform="scale(0.015625)"/>
      </defs>
      <use xlink:href="#DejaVuSans-4e"/>
      <use xlink:href="#DejaVuSans-61" x="74.804688"/>
      <use xlink:href="#DejaVuSans-6f" x="136.083984"/>
      <use xlink:href="#DejaVuSans-6d" x="197.265625"/>
      <use xlink:href="#DejaVuSans-69" x="294.677734"/>
      <use xlink:href="#DejaVuSans-20" x="322.460938"/>
      <use xlink:href="#DejaVuSans-4b" x="354.248047"/>
      <use xlink:href="#DejaVuSans-6c" x="419.824219"/>
      <use xlink:href="#DejaVuSans-65" x="447.607422"/>
      <use xlink:href="#DejaVuSans-69" x="509.130859"/>
      <use xlink:href="#DejaVuSans-6e" x="536.914062"/>
     </g>
    </g>
   </g>
  </g>
  <g id="axes_2">
   <g id="patch_8">
    <path d="M 72 320.4 
L 518.4 320.4 
L 518.4 194.4 
L 72 194.4 
z
" style="fill: #ffffff"/>
   </g>
   <g id="matplotlib.axis_3">
    <g id="xtick_19">
     <g id="line2d_28">
      <defs>
       <path id="md35e287baf" d="M 0 0 
L 0 3.5 
" style="stroke: #000000; stroke-width: 0.8"/>
      </defs>
      <g>
       <use xlink:href="#md35e287baf" x="72" y="320.4" style="stroke: #000000; stroke-width: 0.8"/>
      </g>
     </g>
     <g id="text_10">
      <!-- 2007 -->
      <g transform="translate(59.275 334.998438) scale(0.1 -0.1)">
       <defs>
        <path id="DejaVuSans-37" d="M 525 4666 
L 3525 4666 
L 3525 4397 
L 1831 0 
L 1172 0 
L 2766 4134 
L 525 4134 
L 525 4666 
z
" transform="scale(0.015625)"/>
       </defs>
       <use xlink:href="#DejaVuSans-32"/>
       <use xlink:href="#DejaVuSans-30" x="63.623047"/>
       <use xlink:href="#DejaVuSans-30" x="127.246094"/>
       <use xlink:href="#DejaVuSans-37" x="190.869141"/>
      </g>
     </g>
    </g>
    <g id="xtick_20">
     <g id="line2d_29">
      <g>
       <use xlink:href="#md35e287baf" x="122.298592" y="320.4" style="stroke: #000000; stroke-width: 0.8"/>
      </g>
     </g>
     <g id="text_11">
      <!-- 2009 -->
      <g transform="translate(109.573592 334.998438) scale(0.1 -0.1)">
       <defs>
        <path id="DejaVuSans-39" d="M 703 97 
L 703 672 
Q 941 559 1184 500 
Q 1428 441 1663 441 
Q 2288 441 2617 861 
Q 2947 1281 2994 2138 
Q 2813 1869 2534 1725 
Q 2256 1581 1919 1581 
Q 1219 1581 811 2004 
Q 403 2428 403 3163 
Q 403 3881 828 4315 
Q 1253 4750 1959 4750 
Q 2769 4750 3195 4129 
Q 3622 3509 3622 2328 
Q 3622 1225 3098 567 
Q 2575 -91 1691 -91 
Q 1453 -91 1209 -44 
Q 966 3 703 97 
z
M 1959 2075 
Q 2384 2075 2632 2365 
Q 2881 2656 2881 3163 
Q 2881 3666 2632 3958 
Q 2384 4250 1959 4250 
Q 1534 4250 1286 3958 
Q 1038 3666 1038 3163 
Q 1038 2656 1286 2365 
Q 1534 2075 1959 2075 
z
" transform="scale(0.015625)"/>
       </defs>
       <use xlink:href="#DejaVuSans-32"/>
       <use xlink:href="#DejaVuSans-30" x="63.623047"/>
       <use xlink:href="#DejaVuSans-30" x="127.246094"/>
       <use xlink:href="#DejaVuSans-39" x="190.869141"/>
      </g>
     </g>
    </g>
    <g id="xtick_21">
     <g id="line2d_30">
      <g>
       <use xlink:href="#md35e287baf" x="172.597183" y="320.4" style="stroke: #000000; stroke-width: 0.8"/>
      </g>
     </g>
     <g id="text_12">
      <!-- 2011 -->
      <g transform="translate(159.872183 334.998438) scale(0.1 -0.1)">
       <defs>
        <path id="DejaVuSans-31" d="M 794 531 
L 1825 531 
L 1825 4091 
L 703 3866 
L 703 4441 
L 1819 4666 
L 2450 4666 
L 2450 531 
L 3481 531 
L 3481 0 
L 794 0 
L 794 531 
z
" transform="scale(0.015625)"/>
       </defs>
       <use xlink:href="#DejaVuSans-32"/>
       <use xlink:href="#DejaVuSans-30" x="63.623047"/>
       <use xlink:href="#DejaVuSans-31" x="127.246094"/>
       <use xlink:href="#DejaVuSans-31" x="190.869141"/>
      </g>
     </g>
    </g>
    <g id="xtick_22">
     <g id="line2d_31">
      <g>
       <use xlink:href="#md35e287baf" x="222.895775" y="320.4" style="stroke: #000000; stroke-width: 0.8"/>
      </g>
     </g>
     <g id="text_13">
      <!-- 2013 -->
      <g transform="translate(210.170775 334.998438) scale(0.1 -0.1)">
       <defs>
        <path id="DejaVuSans-33" d="M 2597 2516 
Q 3050 2419 3304 2112 
Q 3559 1806 3559 1356 
Q 3559 666 3084 287 
Q 2609 -91 1734 -91 
Q 1441 -91 1130 -33 
Q 819 25 488 141 
L 488 750 
Q 750 597 1062 519 
Q 1375 441 1716 441 
Q 2309 441 2620 675 
Q 2931 909 2931 1356 
Q 2931 1769 2642 2001 
Q 2353 2234 1838 2234 
L 1294 2234 
L 1294 2753 
L 1863 2753 
Q 2328 2753 2575 2939 
Q 2822 3125 2822 3475 
Q 2822 3834 2567 4026 
Q 2313 4219 1838 4219 
Q 1578 4219 1281 4162 
Q 984 4106 628 3988 
L 628 4550 
Q 988 4650 1302 4700 
Q 1616 4750 1894 4750 
Q 2613 4750 3031 4423 
Q 3450 4097 3450 3541 
Q 3450 3153 3228 2886 
Q 3006 2619 2597 2516 
z
" transform="scale(0.015625)"/>
       </defs>
       <use xlink:href="#DejaVuSans-32"/>
       <use xlink:href="#DejaVuSans-30" x="63.623047"/>
       <use xlink:href="#DejaVuSans-31" x="127.246094"/>
       <use xlink:href="#DejaVuSans-33" x="190.869141"/>
      </g>
     </g>
    </g>
    <g id="xtick_23">
     <g id="line2d_32">
      <g>
       <use xlink:href="#md35e287baf" x="273.194366" y="320.4" style="stroke: #000000; stroke-width: 0.8"/>
      </g>
     </g>
     <g id="text_14">
      <!-- 2015 -->
      <g transform="translate(260.469366 334.998438) scale(0.1 -0.1)">
       <defs>
        <path id="DejaVuSans-35" d="M 691 4666 
L 3169 4666 
L 3169 4134 
L 1269 4134 
L 1269 2991 
Q 1406 3038 1543 3061 
Q 1681 3084 1819 3084 
Q 2600 3084 3056 2656 
Q 3513 2228 3513 1497 
Q 3513 744 3044 326 
Q 2575 -91 1722 -91 
Q 1428 -91 1123 -41 
Q 819 9 494 109 
L 494 744 
Q 775 591 1075 516 
Q 1375 441 1709 441 
Q 2250 441 2565 725 
Q 2881 1009 2881 1497 
Q 2881 1984 2565 2268 
Q 2250 2553 1709 2553 
Q 1456 2553 1204 2497 
Q 953 2441 691 2322 
L 691 4666 
z
" transform="scale(0.015625)"/>
       </defs>
       <use xlink:href="#DejaVuSans-32"/>
       <use xlink:href="#DejaVuSans-30" x="63.623047"/>
       <use xlink:href="#DejaVuSans-31" x="127.246094"/>
       <use xlink:href="#DejaVuSans-35" x="190.869141"/>
      </g>
     </g>
    </g>
    <g id="xtick_24">
     <g id="line2d_33">
      <g>
       <use xlink:href="#md35e287baf" x="323.492958" y="320.4" style="stroke: #000000; stroke-width: 0.8"/>
      </g>
     </g>
     <g id="text_15">
      <!-- 2017 -->
      <g transform="translate(310.767958 334.998438) scale(0.1 -0.1)">
       <use xlink:href="#DejaVuSans-32"/>
       <use xlink:href="#DejaVuSans-30" x="63.623047"/>
       <use xlink:href="#DejaVuSans-31" x="127.246094"/>
       <use xlink:href="#DejaVuSans-37" x="190.869141"/>
      </g>
     </g>
    </g>
    <g id="xtick_25">
     <g id="line2d_34">
      <g>
       <use xlink:href="#md35e287baf" x="373.791549" y="320.4" style="stroke: #000000; stroke-width: 0.8"/>
      </g>
     </g>
     <g id="text_16">
      <!-- 2019 -->
      <g transform="translate(361.066549 334.998438) scale(0.1 -0.1)">
       <use xlink:href="#DejaVuSans-32"/>
       <use xlink:href="#DejaVuSans-30" x="63.623047"/>
       <use xlink:href="#DejaVuSans-31" x="127.246094"/>
       <use xlink:href="#DejaVuSans-39" x="190.869141"/>
      </g>
     </g>
    </g>
    <g id="xtick_26">
     <g id="line2d_35">
      <g>
       <use xlink:href="#md35e287baf" x="424.090141" y="320.4" style="stroke: #000000; stroke-width: 0.8"/>
      </g>
     </g>
     <g id="text_17">
      <!-- 2021 -->
      <g transform="translate(411.365141 334.998438) scale(0.1 -0.1)">
       <use xlink:href="#DejaVuSans-32"/>
       <use xlink:href="#DejaVuSans-30" x="63.623047"/>
       <use xlink:href="#DejaVuSans-32" x="127.246094"/>
       <use xlink:href="#DejaVuSans-31" x="190.869141"/>
      </g>
     </g>
    </g>
    <g id="xtick_27">
     <g id="line2d_36">
      <g>
       <use xlink:href="#md35e287baf" x="474.388732" y="320.4" style="stroke: #000000; stroke-width: 0.8"/>
      </g>
     </g>
     <g id="text_18">
      <!-- 2023 -->
      <g transform="translate(461.663732 334.998438) scale(0.1 -0.1)">
       <use xlink:href="#DejaVuSans-32"/>
       <use xlink:href="#DejaVuSans-30" x="63.623047"/>
       <use xlink:href="#DejaVuSans-32" x="127.246094"/>
       <use xlink:href="#DejaVuSans-33" x="190.869141"/>
      </g>
     </g>
    </g>
    <g id="xtick_28">
     <g id="line2d_37">
      <defs>
       <path id="m1085eee81c" d="M 0 0 
L 0 2 
" style="stroke: #000000; stroke-width: 0.6"/>
      </defs>
      <g>
       <use xlink:href="#m1085eee81c" x="97.149296" y="320.4" style="stroke: #000000; stroke-width: 0.6"/>
      </g>
     </g>
    </g>
    <g id="xtick_29">
     <g id="line2d_38">
      <g>
       <use xlink:href="#m1085eee81c" x="147.447887" y="320.4" style="stroke: #000000; stroke-width: 0.6"/>
      </g>
     </g>
    </g>
    <g id="xtick_30">
     <g id="line2d_39">
      <g>
       <use xlink:href="#m1085eee81c" x="197.746479" y="320.4" style="stroke: #000000; stroke-width: 0.6"/>
      </g>
     </g>
    </g>
    <g id="xtick_31">
     <g id="line2d_40">
      <g>
       <use xlink:href="#m1085eee81c" x="248.04507" y="320.4" style="stroke: #000000; stroke-width: 0.6"/>
      </g>
     </g>
    </g>
    <g id="xtick_32">
     <g id="line2d_41">
      <g>
       <use xlink:href="#m1085eee81c" x="298.343662" y="320.4" style="stroke: #000000; stroke-width: 0.6"/>
      </g>
     </g>
    </g>
    <g id="xtick_33">
     <g id="line2d_42">
      <g>
       <use xlink:href="#m1085eee81c" x="348.642254" y="320.4" style="stroke: #000000; stroke-width: 0.6"/>
      </g>
     </g>
    </g>
    <g id="xtick_34">
     <g id="line2d_43">
      <g>
       <use xlink:href="#m1085eee81c" x="398.940845" y="320.4" style="stroke: #000000; stroke-width: 0.6"/>
      </g>
     </g>
    </g>
    <g id="xtick_35">
     <g id="line2d_44">
      <g>
       <use xlink:href="#m1085eee81c" x="449.239437" y="320.4" style="stroke: #000000; stroke-width: 0.6"/>
      </g>
     </g>
    </g>
    <g id="xtick_36">
     <g id="line2d_45">
      <g>
       <use xlink:href="#m1085eee81c" x="499.538028" y="320.4" style="stroke: #000000; stroke-width: 0.6"/>
      </g>
     </g>
    </g>
   </g>
   <g id="matplotlib.axis_4">
    <g id="ytick_6">
     <g id="line2d_46">
      <g>
       <use xlink:href="#m7ce84d9f38" x="72" y="320.4" style="stroke: #000000; stroke-width: 0.8"/>
      </g>
     </g>
     <g id="text_19">
      <!-- 0 -->
      <g transform="translate(58.6375 324.199219) scale(0.1 -0.1)">
       <use xlink:href="#DejaVuSans-30"/>
      </g>
     </g>
    </g>
    <g id="ytick_7">
     <g id="line2d_47">
      <g>
       <use xlink:href="#m7ce84d9f38" x="72" y="299.4" style="stroke: #000000; stroke-width: 0.8"/>
      </g>
     </g>
     <g id="text_20">
      <!-- 100 -->
      <g transform="translate(45.9125 303.199219) scale(0.1 -0.1)">
       <use xlink:href="#DejaVuSans-31"/>
       <use xlink:href="#DejaVuSans-30" x="63.623047"/>
       <use xlink:href="#DejaVuSans-30" x="127.246094"/>
      </g>
     </g>
    </g>
    <g id="ytick_8">
     <g id="line2d_48">
      <g>
       <use xlink:href="#m7ce84d9f38" x="72" y="278.4" style="stroke: #000000; stroke-width: 0.8"/>
      </g>
     </g>
     <g id="text_21">
      <!-- 200 -->
      <g transform="translate(45.9125 282.199219) scale(0.1 -0.1)">
       <use xlink:href="#DejaVuSans-32"/>
       <use xlink:href="#DejaVuSans-30" x="63.623047"/>
       <use xlink:href="#DejaVuSans-30" x="127.246094"/>
      </g>
     </g>
    </g>
    <g id="ytick_9">
     <g id="line2d_49">
      <g>
       <use xlink:href="#m7ce84d9f38" x="72" y="257.4" style="stroke: #000000; stroke-width: 0.8"/>
      </g>
     </g>
     <g id="text_22">
      <!-- 300 -->
      <g transform="translate(45.9125 261.199219) scale(0.1 -0.1)">
       <use xlink:href="#DejaVuSans-33"/>
       <use xlink:href="#DejaVuSans-30" x="63.623047"/>
       <use xlink:href="#DejaVuSans-30" x="127.246094"/>
      </g>
     </g>
    </g>
    <g id="ytick_10">
     <g id="line2d_50">
      <g>
       <use xlink:href="#m7ce84d9f38" x="72" y="236.4" style="stroke: #000000; stroke-width: 0.8"/>
      </g>
     </g>
     <g id="text_23">
      <!-- 400 -->
      <g transform="translate(45.9125 240.199219) scale(0.1 -0.1)">
       <use xlink:href="#DejaVuSans-34"/>
       <use xlink:href="#DejaVuSans-30" x="63.623047"/>
       <use xlink:href="#DejaVuSans-30" x="127.246094"/>
      </g>
     </g>
    </g>
    <g id="ytick_11">
     <g id="line2d_51">
      <g>
       <use xlink:href="#m7ce84d9f38" x="72" y="215.4" style="stroke: #000000; stroke-width: 0.8"/>
      </g>
     </g>
     <g id="text_24">
      <!-- 500 -->
      <g transform="translate(45.9125 219.199219) scale(0.1 -0.1)">
       <use xlink:href="#DejaVuSans-35"/>
       <use xlink:href="#DejaVuSans-30" x="63.623047"/>
       <use xlink:href="#DejaVuSans-30" x="127.246094"/>
      </g>
     </g>
    </g>
    <g id="ytick_12">
     <g id="line2d_52">
      <g>
       <use xlink:href="#m7ce84d9f38" x="72" y="194.4" style="stroke: #000000; stroke-width: 0.8"/>
      </g>
     </g>
     <g id="text_25">
      <!-- 600 -->
      <g transform="translate(45.9125 198.199219) scale(0.1 -0.1)">
       <use xlink:href="#DejaVuSans-36"/>
       <use xlink:href="#DejaVuSans-30" x="63.623047"/>
       <use xlink:href="#DejaVuSans-30" x="127.246094"/>
      </g>
     </g>
    </g>
    <g id="text_26">
     <!-- Total edits -->
     <g transform="translate(39.832812 282.870313) rotate(-90) scale(0.1 -0.1)">
      <use xlink:href="#DejaVuSans-54"/>
      <use xlink:href="#DejaVuSans-6f" x="44.083984"/>
      <use xlink:href="#DejaVuSans-74" x="105.265625"/>
      <use xlink:href="#DejaVuSans-61" x="144.474609"/>
      <use xlink:href="#DejaVuSans-6c" x="205.753906"/>
      <use xlink:href="#DejaVuSans-20" x="233.537109"/>
      <use xlink:href="#DejaVuSans-65" x="265.324219"/>
      <use xlink:href="#DejaVuSans-64" x="326.847656"/>
      <use xlink:href="#DejaVuSans-69" x="390.324219"/>
      <use xlink:href="#DejaVuSans-74" x="418.107422"/>
      <use xlink:href="#DejaVuSans-73" x="457.316406"/>
     </g>
    </g>
   </g>
   <g id="line2d_53">
    <path d="M 371.695775 298.77 
L 373.791549 293.73 
L 375.887324 297.51 
L 377.983099 294.36 
L 380.078873 257.61 
L 382.174648 269.58 
L 384.270423 291.84 
L 386.366197 294.36 
L 388.461972 239.76 
L 390.557746 213.09 
L 392.653521 255.72 
L 394.749296 277.56 
L 396.84507 277.35 
L 398.940845 257.19 
L 401.03662 294.57 
L 403.132394 305.49 
L 405.228169 315.57 
L 407.323944 314.94 
L 409.419718 314.1 
L 411.515493 315.15 
L 413.611268 314.94 
L 415.707042 312.42 
L 417.802817 317.25 
L 419.898592 314.31 
L 421.994366 300.87 
L 424.090141 313.68 
L 426.185915 309.06 
L 428.28169 316.62 
L 430.377465 311.58 
L 432.473239 312.84 
L 434.569014 317.04 
L 436.664789 312.42 
L 438.760563 316.62 
L 440.856338 307.59 
L 442.952113 314.52 
L 445.047887 311.37 
L 447.143662 314.1 
L 449.239437 316.41 
L 451.335211 318.09 
L 453.430986 317.46 
L 455.526761 319.35 
L 457.622535 318.93 
L 459.71831 318.09 
L 461.814085 312.63 
L 463.909859 316.83 
L 466.005634 315.57 
L 468.101408 312.42 
L 470.197183 311.58 
L 472.292958 312.21 
L 474.388732 309.06 
L 476.484507 317.67 
L 478.580282 317.88 
L 480.676056 318.09 
L 482.771831 317.67 
L 484.867606 315.57 
L 486.96338 314.73 
L 489.059155 317.04 
L 491.15493 310.11 
L 493.250704 293.52 
L 495.346479 312.63 
L 497.442254 315.15 
L 499.538028 317.46 
L 501.633803 313.26 
L 503.729577 319.56 
L 505.825352 317.04 
L 507.921127 317.88 
L 510.016901 319.98 
L 512.112676 318.3 
L 514.208451 318.3 
L 516.304225 315.36 
L 518.4 317.04 
" clip-path="url(#p702049e5d2)" style="fill: none; stroke: #1f77b4; stroke-width: 1.5; stroke-linecap: square"/>
   </g>
   <g id="line2d_54">
    <path d="M -1 320.153024 
L 0.743662 318.93 
L 2.839437 320.4 
L 4.935211 319.35 
L 7.030986 320.4 
L 9.126761 319.56 
L 11.222535 318.93 
L 13.31831 319.77 
L 15.414085 317.46 
L 17.509859 317.88 
L 19.605634 319.98 
L 21.701408 319.35 
L 23.797183 319.35 
L 25.892958 318.93 
L 27.988732 319.35 
L 30.084507 318.93 
L 32.180282 319.98 
L 34.276056 319.35 
L 36.371831 319.35 
L 38.467606 318.93 
L 40.56338 319.14 
L 42.659155 319.14 
L 44.75493 318.09 
L 46.850704 318.93 
L 48.946479 318.3 
L 51.042254 319.77 
L 53.138028 320.4 
L 55.233803 317.67 
L 57.329577 319.77 
L 59.425352 319.77 
L 61.521127 317.88 
L 63.616901 318.51 
L 65.712676 320.4 
L 67.808451 318.72 
L 69.904225 319.56 
L 72 319.14 
L 74.095775 319.98 
L 76.191549 319.56 
L 78.287324 319.77 
L 80.383099 319.56 
L 82.478873 319.14 
L 84.574648 319.77 
L 86.670423 319.35 
L 88.766197 298.77 
L 90.861972 303.81 
L 92.957746 318.09 
L 95.053521 310.32 
L 97.149296 312.21 
L 99.24507 312.84 
L 101.340845 319.35 
L 103.43662 314.31 
L 105.532394 311.37 
L 107.628169 312.21 
L 109.723944 312 
L 111.819718 317.67 
L 113.915493 314.31 
L 116.011268 314.94 
L 118.107042 316.83 
L 120.202817 316.2 
L 122.298592 315.15 
L 124.394366 306.54 
L 126.490141 316.41 
L 128.585915 316.2 
L 130.68169 318.51 
L 132.777465 319.14 
L 134.873239 315.57 
L 136.969014 318.72 
L 139.064789 304.02 
L 141.160563 315.78 
L 143.256338 312.42 
L 145.352113 310.53 
L 147.447887 315.57 
L 149.543662 317.25 
L 151.639437 318.3 
L 153.735211 318.72 
L 155.830986 319.35 
L 157.926761 317.25 
L 160.022535 319.35 
L 162.11831 320.19 
L 164.214085 319.35 
L 166.309859 318.09 
L 168.405634 319.56 
L 170.501408 319.14 
L 172.597183 318.93 
L 174.692958 318.3 
L 178.884507 317.88 
L 180.980282 319.56 
L 183.076056 317.04 
L 185.171831 317.88 
L 187.267606 318.93 
L 189.36338 319.14 
L 191.459155 315.99 
L 193.55493 319.56 
L 195.650704 319.14 
L 197.746479 318.09 
L 199.842254 319.77 
L 201.938028 317.67 
L 204.033803 318.72 
L 206.129577 318.51 
L 208.225352 318.51 
L 210.321127 318.72 
L 212.416901 319.14 
L 214.512676 319.98 
L 216.608451 317.46 
L 218.704225 318.09 
L 220.8 319.98 
L 222.895775 318.51 
L 224.991549 319.77 
L 227.087324 319.98 
L 229.183099 319.35 
L 231.278873 319.14 
L 233.374648 320.19 
L 235.470423 319.98 
L 237.566197 318.3 
L 239.661972 319.35 
L 241.757746 319.56 
L 243.853521 319.35 
L 245.949296 319.98 
L 248.04507 319.98 
L 250.140845 319.56 
L 252.23662 319.98 
L 254.332394 319.77 
L 256.428169 319.77 
L 258.523944 320.4 
L 260.619718 320.19 
L 262.715493 319.35 
L 264.811268 316.41 
L 266.907042 315.99 
L 269.002817 318.72 
L 271.098592 319.14 
L 273.194366 319.35 
L 275.290141 319.77 
L 277.385915 319.14 
L 279.48169 318.93 
L 281.577465 318.09 
L 283.673239 318.09 
L 285.769014 315.36 
L 287.864789 319.77 
L 289.960563 319.35 
L 292.056338 319.98 
L 294.152113 319.98 
L 296.247887 320.19 
L 298.343662 320.19 
L 300.439437 317.46 
L 302.535211 319.56 
L 304.630986 315.36 
L 306.726761 319.56 
L 308.822535 319.77 
L 310.91831 320.4 
L 313.014085 318.72 
L 315.109859 319.98 
L 317.205634 319.56 
L 319.301408 319.35 
L 321.397183 319.35 
L 323.492958 319.98 
L 329.780282 319.98 
L 331.876056 318.93 
L 333.971831 318.51 
L 336.067606 318.72 
L 338.16338 309.06 
L 340.259155 318.72 
L 342.35493 319.98 
L 344.450704 319.56 
L 346.546479 319.56 
L 348.642254 318.72 
L 350.738028 320.19 
L 352.833803 319.35 
L 354.929577 318.93 
L 357.025352 319.56 
L 359.121127 318.72 
L 361.216901 319.56 
L 363.312676 319.56 
L 365.408451 318.93 
L 367.504225 319.35 
L 369.6 319.56 
L 371.695775 318.09 
L 373.791549 317.25 
L 375.887324 319.77 
L 377.983099 319.14 
L 380.078873 319.77 
L 382.174648 318.09 
L 384.270423 319.35 
L 386.366197 319.35 
L 388.461972 317.46 
L 390.557746 317.46 
L 392.653521 317.88 
L 394.749296 318.93 
L 396.84507 318.3 
L 398.940845 318.09 
L 401.03662 318.93 
L 403.132394 317.67 
L 405.228169 317.46 
L 407.323944 319.14 
L 409.419718 320.19 
L 413.611268 319.77 
L 415.707042 318.51 
L 417.802817 319.56 
L 419.898592 320.19 
L 421.994366 317.67 
L 424.090141 319.77 
L 426.185915 319.77 
L 428.28169 320.4 
L 430.377465 320.4 
L 432.473239 319.35 
L 434.569014 315.36 
L 436.664789 319.35 
L 438.760563 319.56 
L 440.856338 319.35 
L 442.952113 319.56 
L 445.047887 319.56 
L 447.143662 318.3 
L 449.239437 320.4 
L 451.335211 319.98 
L 453.430986 318.3 
L 455.526761 319.77 
L 457.622535 319.77 
L 459.71831 320.4 
L 461.814085 320.19 
L 463.909859 319.14 
L 466.005634 320.4 
L 468.101408 319.77 
L 470.197183 319.98 
L 472.292958 320.4 
L 474.388732 320.19 
L 476.484507 319.56 
L 478.580282 319.56 
L 480.676056 319.77 
L 482.771831 318.93 
L 484.867606 319.56 
L 486.96338 318.72 
L 489.059155 319.56 
L 491.15493 314.1 
L 493.250704 317.25 
L 495.346479 317.88 
L 497.442254 318.09 
L 499.538028 319.77 
L 501.633803 319.77 
L 503.729577 318.51 
L 505.825352 318.72 
L 507.921127 316.62 
L 510.016901 317.88 
L 512.112676 319.77 
L 514.208451 319.56 
L 516.304225 319.77 
L 518.4 318.72 
L 518.4 318.72 
" clip-path="url(#p702049e5d2)" style="fill: none; stroke: #ff7f0e; stroke-width: 1.5; stroke-linecap: square"/>
   </g>
   <g id="LineCollection_3">
    <path d="M 88.766197 320.4 
L 88.766197 194.4 
" clip-path="url(#p702049e5d2)" style="fill: none; stroke-dasharray: 5.55,2.4; stroke-dashoffset: 0; stroke: #a24936; stroke-opacity: 0.5; stroke-width: 1.5"/>
   </g>
   <g id="LineCollection_4">
    <path d="M 363.312676 320.4 
L 363.312676 194.4 
" clip-path="url(#p702049e5d2)" style="fill: none; stroke-dasharray: 5.55,2.4; stroke-dashoffset: 0; stroke: #1c2541; stroke-opacity: 0.5; stroke-width: 1.5"/>
   </g>
   <g id="patch_9">
    <path d="M 72 320.4 
L 72 194.4 
" style="fill: none; stroke: #000000; stroke-width: 0.8; stroke-linejoin: miter; stroke-linecap: square"/>
   </g>
   <g id="patch_10">
    <path d="M 518.4 320.4 
L 518.4 194.4 
" style="fill: none; stroke: #000000; stroke-width: 0.8; stroke-linejoin: miter; stroke-linecap: square"/>
   </g>
   <g id="patch_11">
    <path d="M 72 320.4 
L 518.4 320.4 
" style="fill: none; stroke: #000000; stroke-width: 0.8; stroke-linejoin: miter; stroke-linecap: square"/>
   </g>
   <g id="patch_12">
    <path d="M 72 194.4 
L 518.4 194.4 
" style="fill: none; stroke: #000000; stroke-width: 0.8; stroke-linejoin: miter; stroke-linecap: square"/>
   </g>
   <g id="text_27">
    <!-- The Shock Doctrine -->
    <g style="fill: #a24936; opacity: 0.7" transform="translate(88.766197 212.498437) scale(0.1 -0.1)">
     <defs>
      <path id="DejaVuSans-53" d="M 3425 4513 
L 3425 3897 
Q 3066 4069 2747 4153 
Q 2428 4238 2131 4238 
Q 1616 4238 1336 4038 
Q 1056 3838 1056 3469 
Q 1056 3159 1242 3001 
Q 1428 2844 1947 2747 
L 2328 2669 
Q 3034 2534 3370 2195 
Q 3706 1856 3706 1288 
Q 3706 609 3251 259 
Q 2797 -91 1919 -91 
Q 1588 -91 1214 -16 
Q 841 59 441 206 
L 441 856 
Q 825 641 1194 531 
Q 1563 422 1919 422 
Q 2459 422 2753 634 
Q 3047 847 3047 1241 
Q 3047 1584 2836 1778 
Q 2625 1972 2144 2069 
L 1759 2144 
Q 1053 2284 737 2584 
Q 422 2884 422 3419 
Q 422 4038 858 4394 
Q 1294 4750 2059 4750 
Q 2388 4750 2728 4690 
Q 3069 4631 3425 4513 
z
" transform="scale(0.015625)"/>
      <path id="DejaVuSans-6b" d="M 581 4863 
L 1159 4863 
L 1159 1991 
L 2875 3500 
L 3609 3500 
L 1753 1863 
L 3688 0 
L 2938 0 
L 1159 1709 
L 1159 0 
L 581 0 
L 581 4863 
z
" transform="scale(0.015625)"/>
      <path id="DejaVuSans-44" d="M 1259 4147 
L 1259 519 
L 2022 519 
Q 2988 519 3436 956 
Q 3884 1394 3884 2338 
Q 3884 3275 3436 3711 
Q 2988 4147 2022 4147 
L 1259 4147 
z
M 628 4666 
L 1925 4666 
Q 3281 4666 3915 4102 
Q 4550 3538 4550 2338 
Q 4550 1131 3912 565 
Q 3275 0 1925 0 
L 628 0 
L 628 4666 
z
" transform="scale(0.015625)"/>
     </defs>
     <use xlink:href="#DejaVuSans-54"/>
     <use xlink:href="#DejaVuSans-68" x="61.083984"/>
     <use xlink:href="#DejaVuSans-65" x="124.462891"/>
     <use xlink:href="#DejaVuSans-20" x="185.986328"/>
     <use xlink:href="#DejaVuSans-53" x="217.773438"/>
     <use xlink:href="#DejaVuSans-68" x="281.25"/>
     <use xlink:href="#DejaVuSans-6f" x="344.628906"/>
     <use xlink:href="#DejaVuSans-63" x="405.810547"/>
     <use xlink:href="#DejaVuSans-6b" x="460.791016"/>
     <use xlink:href="#DejaVuSans-20" x="518.701172"/>
     <use xlink:href="#DejaVuSans-44" x="550.488281"/>
     <use xlink:href="#DejaVuSans-6f" x="627.490234"/>
     <use xlink:href="#DejaVuSans-63" x="688.671875"/>
     <use xlink:href="#DejaVuSans-74" x="743.652344"/>
     <use xlink:href="#DejaVuSans-72" x="782.861328"/>
     <use xlink:href="#DejaVuSans-69" x="823.974609"/>
     <use xlink:href="#DejaVuSans-6e" x="851.757812"/>
     <use xlink:href="#DejaVuSans-65" x="915.136719"/>
    </g>
   </g>
   <g id="text_28">
    <!-- School Strike -->
    <g style="fill: #1c2541; opacity: 0.7" transform="translate(363.312676 212.498437) scale(0.1 -0.1)">
     <use xlink:href="#DejaVuSans-53"/>
     <use xlink:href="#DejaVuSans-63" x="63.476562"/>
     <use xlink:href="#DejaVuSans-68" x="118.457031"/>
     <use xlink:href="#DejaVuSans-6f" x="181.835938"/>
     <use xlink:href="#DejaVuSans-6f" x="243.017578"/>
     <use xlink:href="#DejaVuSans-6c" x="304.199219"/>
     <use xlink:href="#DejaVuSans-20" x="331.982422"/>
     <use xlink:href="#DejaVuSans-53" x="363.769531"/>
     <use xlink:href="#DejaVuSans-74" x="427.246094"/>
     <use xlink:href="#DejaVuSans-72" x="466.455078"/>
     <use xlink:href="#DejaVuSans-69" x="507.568359"/>
     <use xlink:href="#DejaVuSans-6b" x="535.351562"/>
     <use xlink:href="#DejaVuSans-65" x="589.636719"/>
    </g>
   </g>
   <g id="text_29">
    <!-- Monthly Revisions -->
    <g transform="translate(241.06875 188.4) scale(0.12 -0.12)">
     <defs>
      <path id="DejaVuSans-52" d="M 2841 2188 
Q 3044 2119 3236 1894 
Q 3428 1669 3622 1275 
L 4263 0 
L 3584 0 
L 2988 1197 
Q 2756 1666 2539 1819 
Q 2322 1972 1947 1972 
L 1259 1972 
L 1259 0 
L 628 0 
L 628 4666 
L 2053 4666 
Q 2853 4666 3247 4331 
Q 3641 3997 3641 3322 
Q 3641 2881 3436 2590 
Q 3231 2300 2841 2188 
z
M 1259 4147 
L 1259 2491 
L 2053 2491 
Q 2509 2491 2742 2702 
Q 2975 2913 2975 3322 
Q 2975 3731 2742 3939 
Q 2509 4147 2053 4147 
L 1259 4147 
z
" transform="scale(0.015625)"/>
     </defs>
     <use xlink:href="#DejaVuSans-4d"/>
     <use xlink:href="#DejaVuSans-6f" x="86.279297"/>
     <use xlink:href="#DejaVuSans-6e" x="147.460938"/>
     <use xlink:href="#DejaVuSans-74" x="210.839844"/>
     <use xlink:href="#DejaVuSans-68" x="250.048828"/>
     <use xlink:href="#DejaVuSans-6c" x="313.427734"/>
     <use xlink:href="#DejaVuSans-79" x="341.210938"/>
     <use xlink:href="#DejaVuSans-20" x="400.390625"/>
     <use xlink:href="#DejaVuSans-52" x="432.177734"/>
     <use xlink:href="#DejaVuSans-65" x="497.160156"/>
     <use xlink:href="#DejaVuSans-76" x="558.683594"/>
     <use xlink:href="#DejaVuSans-69" x="617.863281"/>
     <use xlink:href="#DejaVuSans-73" x="645.646484"/>
     <use xlink:href="#DejaVuSans-69" x="697.746094"/>
     <use xlink:href="#DejaVuSans-6f" x="725.529297"/>
     <use xlink:href="#DejaVuSans-6e" x="786.710938"/>
     <use xlink:href="#DejaVuSans-73" x="850.089844"/>
    </g>
   </g>
  </g>
 </g>
 <defs>
  <clipPath id="p6833b8c583">
   <rect x="72" y="43.2" width="446.4" height="126"/>
  </clipPath>
  <clipPath id="p702049e5d2">
   <rect x="72" y="194.4" width="446.4" height="126"/>
  </clipPath>
 </defs>
</svg>
